<svg id="svg" version="1.1" xmlns="http://www.w3.org/2000/svg" xmlns:xlink="http://www.w3.org/1999/xlink" width="400" height="400" viewBox="0, 0, 400,400"><g id="svgg"><path id="path0" d="M289.700 0.274 C 288.325 0.364,287.200 0.610,287.200 0.819 C 287.200 1.029,286.300 1.200,285.200 1.200 C 284.100 1.200,283.200 1.380,283.200 1.600 C 283.200 1.820,282.480 2.000,281.600 2.000 C 280.720 2.000,280.000 2.180,280.000 2.400 C 280.000 2.620,279.370 2.800,278.600 2.800 C 277.830 2.800,277.200 2.980,277.200 3.200 C 277.200 3.420,276.660 3.600,276.000 3.600 C 275.340 3.600,274.800 3.780,274.800 4.000 C 274.800 4.220,274.260 4.400,273.600 4.400 C 272.940 4.400,272.400 4.580,272.400 4.800 C 272.400 5.020,271.860 5.200,271.200 5.200 C 270.540 5.200,270.000 5.380,270.000 5.600 C 270.000 5.820,269.640 6.000,269.200 6.000 C 268.760 6.000,268.400 6.180,268.400 6.400 C 268.400 6.620,267.860 6.800,267.200 6.800 C 266.540 6.800,266.000 6.980,266.000 7.200 C 266.000 7.420,265.640 7.600,265.200 7.600 C 264.760 7.600,264.400 7.780,264.400 8.000 C 264.400 8.220,264.135 8.400,263.811 8.400 C 263.074 8.400,258.775 10.401,258.098 11.059 C 257.821 11.328,257.236 11.662,256.798 11.801 C 256.359 11.940,256.000 12.222,256.000 12.427 C 256.000 12.632,255.640 12.800,255.200 12.800 C 254.760 12.800,254.400 12.980,254.400 13.200 C 254.400 13.420,254.130 13.600,253.800 13.600 C 253.470 13.600,253.200 13.780,253.200 14.000 C 253.200 14.220,252.930 14.400,252.600 14.400 C 252.270 14.400,252.000 14.580,252.000 14.800 C 252.000 15.020,251.728 15.200,251.396 15.200 C 251.064 15.200,250.228 15.740,249.537 16.400 C 248.846 17.060,248.126 17.600,247.937 17.600 C 247.748 17.600,247.028 18.140,246.337 18.800 C 245.646 19.460,244.910 20.000,244.701 20.000 C 244.270 20.000,242.000 22.331,242.000 22.775 C 242.000 22.934,241.505 23.319,240.900 23.631 C 240.295 23.942,238.960 25.037,237.934 26.065 C 236.908 27.093,235.963 27.829,235.834 27.701 C 235.705 27.572,235.600 27.777,235.600 28.157 C 235.600 28.537,235.465 28.765,235.300 28.664 C 235.135 28.564,234.370 29.318,233.600 30.341 C 232.830 31.363,231.570 32.830,230.800 33.600 C 229.373 35.027,228.665 36.214,228.177 38.000 C 228.026 38.550,227.335 39.810,226.640 40.800 C 208.232 67.040,204.536 101.249,216.786 132.000 C 220.179 140.516,227.109 154.141,230.449 158.862 C 230.862 159.446,231.200 160.028,231.200 160.155 C 231.200 160.386,235.752 167.245,254.589 195.400 C 260.035 203.540,264.591 210.470,264.714 210.800 C 264.837 211.130,265.627 212.425,266.469 213.678 C 267.311 214.931,268.000 216.069,268.000 216.206 C 268.000 216.343,268.540 217.241,269.200 218.200 C 269.860 219.159,270.400 220.033,270.400 220.141 C 270.400 220.249,271.314 221.920,272.431 223.854 C 274.672 227.735,281.316 240.941,282.768 244.400 C 285.255 250.327,286.603 253.677,287.676 256.600 C 293.328 271.999,296.664 286.254,298.834 304.285 C 299.695 311.440,304.177 314.230,308.589 310.356 C 310.276 308.874,310.235 309.013,310.999 302.339 C 312.194 291.899,315.263 276.616,317.614 269.400 C 321.593 257.181,323.264 252.652,326.920 244.174 C 329.207 238.869,335.149 227.173,337.940 222.482 C 338.633 221.318,339.200 220.270,339.200 220.154 C 339.200 220.039,339.740 219.159,340.400 218.200 C 341.060 217.241,341.600 216.367,341.600 216.258 C 341.600 215.011,361.059 186.043,362.414 185.272 C 363.064 184.902,363.596 184.409,363.597 184.175 C 363.599 183.942,363.915 183.402,364.300 182.975 C 364.685 182.549,365.255 181.705,365.568 181.100 C 365.880 180.495,366.263 180.000,366.419 180.000 C 366.575 180.000,366.927 179.460,367.200 178.800 C 367.473 178.140,367.843 177.600,368.022 177.600 C 368.200 177.600,368.460 177.241,368.599 176.802 C 368.738 176.364,369.078 175.779,369.354 175.502 C 370.293 174.562,375.200 167.008,375.200 166.503 C 375.200 166.226,375.380 166.000,375.600 166.000 C 375.820 166.000,376.000 165.764,376.000 165.475 C 376.000 165.187,376.360 164.564,376.800 164.092 C 377.240 163.620,377.600 162.996,377.600 162.705 C 377.600 162.414,377.960 161.917,378.400 161.600 C 378.840 161.283,379.200 160.703,379.200 160.312 C 379.200 159.920,379.380 159.600,379.600 159.600 C 379.820 159.600,380.000 159.330,380.000 159.000 C 380.000 158.670,380.180 158.400,380.400 158.400 C 380.620 158.400,380.800 158.130,380.800 157.800 C 380.800 157.470,380.980 157.200,381.200 157.200 C 381.420 157.200,381.600 156.930,381.600 156.600 C 381.600 156.270,381.780 156.000,382.000 156.000 C 382.220 156.000,382.400 155.655,382.400 155.233 C 382.400 154.812,382.535 154.407,382.700 154.333 C 383.076 154.166,384.375 152.036,384.671 151.100 C 384.793 150.715,385.052 150.400,385.247 150.400 C 385.441 150.400,385.600 150.040,385.600 149.600 C 385.600 149.160,385.780 148.800,386.000 148.800 C 386.220 148.800,386.400 148.440,386.400 148.000 C 386.400 147.560,386.580 147.200,386.800 147.200 C 387.020 147.200,387.200 146.840,387.200 146.400 C 387.200 145.960,387.380 145.600,387.600 145.600 C 387.820 145.600,388.000 145.240,388.000 144.800 C 388.000 144.360,388.180 144.000,388.400 144.000 C 388.620 144.000,388.800 143.655,388.800 143.233 C 388.800 142.812,388.935 142.407,389.100 142.333 C 389.621 142.102,391.155 138.846,391.428 137.394 C 391.571 136.627,391.849 136.000,392.045 136.000 C 392.240 136.000,392.400 135.550,392.400 135.000 C 392.400 134.450,392.580 134.000,392.800 134.000 C 393.020 134.000,393.200 133.550,393.200 133.000 C 393.200 132.450,393.380 132.000,393.600 132.000 C 393.820 132.000,394.000 131.550,394.000 131.000 C 394.000 130.450,394.180 130.000,394.400 130.000 C 394.620 130.000,394.800 129.460,394.800 128.800 C 394.800 128.140,394.980 127.600,395.200 127.600 C 395.420 127.600,395.600 127.060,395.600 126.400 C 395.600 125.740,395.780 125.200,396.000 125.200 C 396.220 125.200,396.400 124.660,396.400 124.000 C 396.400 123.340,396.580 122.800,396.800 122.800 C 397.020 122.800,397.200 122.170,397.200 121.400 C 397.200 120.630,397.380 120.000,397.600 120.000 C 397.820 120.000,398.000 119.291,398.000 118.424 C 398.000 117.557,398.180 116.736,398.400 116.600 C 398.620 116.464,398.800 115.589,398.800 114.656 C 398.800 113.723,399.025 112.735,399.300 112.460 C 399.684 112.076,399.800 108.017,399.800 94.913 C 399.800 81.632,399.690 77.830,399.300 77.700 C 399.001 77.600,398.800 76.824,398.800 75.767 C 398.800 74.795,398.620 74.000,398.400 74.000 C 398.180 74.000,398.000 73.291,398.000 72.424 C 398.000 71.557,397.820 70.736,397.600 70.600 C 397.380 70.464,397.200 69.733,397.200 68.976 C 397.200 68.219,397.020 67.600,396.800 67.600 C 396.580 67.600,396.400 67.060,396.400 66.400 C 396.400 65.740,396.220 65.200,396.000 65.200 C 395.780 65.200,395.600 64.660,395.600 64.000 C 395.600 63.340,395.420 62.800,395.200 62.800 C 394.980 62.800,394.800 62.350,394.800 61.800 C 394.800 61.250,394.620 60.800,394.400 60.800 C 394.180 60.800,394.000 60.350,394.000 59.800 C 394.000 59.250,393.820 58.800,393.600 58.800 C 393.380 58.800,393.200 58.350,393.200 57.800 C 393.200 57.250,393.020 56.800,392.800 56.800 C 392.580 56.800,392.400 56.440,392.400 56.000 C 392.400 55.560,392.236 55.200,392.035 55.200 C 391.834 55.200,391.549 54.480,391.400 53.600 C 391.251 52.720,390.966 52.000,390.765 52.000 C 390.564 52.000,390.400 51.655,390.400 51.233 C 390.400 50.812,390.265 50.407,390.100 50.333 C 389.830 50.213,388.622 48.111,387.440 45.703 C 387.198 45.210,386.865 44.805,386.700 44.803 C 386.535 44.801,386.400 44.558,386.400 44.262 C 386.400 43.966,386.040 43.398,385.600 43.000 C 385.160 42.602,384.800 42.074,384.800 41.826 C 384.800 41.579,384.440 41.117,384.000 40.800 C 383.560 40.483,383.200 39.975,383.200 39.672 C 383.200 39.369,382.660 38.617,382.000 38.000 C 381.340 37.383,380.800 36.667,380.800 36.408 C 380.800 36.149,380.080 35.246,379.200 34.400 C 378.320 33.554,377.600 32.664,377.600 32.420 C 377.600 31.829,369.046 23.200,368.460 23.200 C 368.207 23.200,368.000 23.020,368.000 22.800 C 368.000 22.580,367.806 22.400,367.569 22.400 C 367.331 22.400,366.446 21.680,365.600 20.800 C 364.754 19.920,363.851 19.200,363.592 19.200 C 363.333 19.200,362.617 18.660,362.000 18.000 C 361.383 17.340,360.631 16.800,360.328 16.800 C 360.025 16.800,359.517 16.440,359.200 16.000 C 358.883 15.560,358.476 15.200,358.295 15.200 C 358.114 15.200,357.580 14.840,357.108 14.400 C 356.636 13.960,356.013 13.600,355.725 13.600 C 355.436 13.600,355.197 13.465,355.194 13.300 C 355.190 13.135,354.290 12.560,353.194 12.021 C 352.097 11.483,351.200 10.898,351.200 10.721 C 351.200 10.545,350.840 10.400,350.400 10.400 C 349.960 10.400,349.600 10.220,349.600 10.000 C 349.600 9.780,349.351 9.600,349.046 9.600 C 348.741 9.600,347.976 9.331,347.346 9.002 C 346.716 8.674,345.885 8.404,345.500 8.402 C 345.115 8.401,344.800 8.220,344.800 8.000 C 344.800 7.780,344.440 7.600,344.000 7.600 C 343.560 7.600,343.200 7.420,343.200 7.200 C 343.200 6.980,342.750 6.800,342.200 6.800 C 341.650 6.800,341.200 6.620,341.200 6.400 C 341.200 6.180,340.851 6.000,340.424 6.000 C 339.997 6.000,339.536 5.820,339.400 5.600 C 339.264 5.380,338.713 5.200,338.176 5.200 C 337.639 5.200,337.200 5.020,337.200 4.800 C 337.200 4.580,336.660 4.400,336.000 4.400 C 335.340 4.400,334.800 4.220,334.800 4.000 C 334.800 3.780,334.260 3.600,333.600 3.600 C 332.940 3.600,332.400 3.420,332.400 3.200 C 332.400 2.980,331.781 2.800,331.024 2.800 C 330.267 2.800,329.536 2.620,329.400 2.400 C 329.264 2.180,328.443 2.000,327.576 2.000 C 326.709 2.000,326.000 1.820,326.000 1.600 C 326.000 1.380,325.205 1.200,324.233 1.200 C 323.190 1.200,322.399 0.998,322.303 0.708 C 322.139 0.218,295.866 -0.132,289.700 0.274 " stroke="none" fill="#d2463a" fill-rule="evenodd"></path><path id="path1" d="M74.600 67.033 C 70.831 67.569,67.965 68.218,64.600 69.296 C 49.274 74.208,36.359 87.116,31.278 102.600 C 18.863 140.438,51.704 177.829,91.000 170.596 C 109.318 167.225,122.537 155.987,128.376 138.821 C 130.889 131.434,131.943 119.652,130.741 112.377 L 130.283 109.600 105.741 109.600 L 81.200 109.600 81.200 119.600 L 81.200 129.600 94.813 129.600 C 110.076 129.600,109.330 129.439,108.413 132.530 C 100.844 158.030,60.751 155.813,51.792 129.400 C 42.167 101.020,74.908 75.615,98.321 93.296 C 99.708 94.343,100.968 95.200,101.121 95.199 C 101.617 95.199,115.600 80.954,115.600 80.449 C 115.600 78.060,102.375 70.527,94.600 68.487 C 93.720 68.257,92.280 67.864,91.400 67.616 C 89.795 67.162,76.849 66.714,74.600 67.033 M360.485 187.300 C 355.528 194.058,342.723 214.007,338.597 221.400 C 337.983 222.500,336.874 224.480,336.134 225.800 C 329.719 237.235,322.833 252.956,319.314 264.200 C 318.970 265.300,318.424 267.010,318.100 268.000 C 317.542 269.706,316.820 272.378,315.451 277.800 C 313.615 285.073,312.098 293.590,311.003 302.770 C 310.048 310.776,307.066 313.813,302.487 311.445 C 299.640 309.973,299.267 308.872,297.995 298.200 C 297.759 296.220,297.409 293.880,297.218 293.000 C 297.028 292.120,296.663 290.140,296.409 288.600 C 294.457 276.775,288.749 257.900,283.827 247.000 C 283.331 245.900,282.584 244.190,282.168 243.200 C 280.751 239.828,273.721 226.215,270.807 221.200 C 269.208 218.450,267.587 215.660,267.203 215.000 C 262.725 207.294,248.447 186.000,247.759 186.000 C 247.565 186.000,232.372 201.030,213.998 219.400 C 195.623 237.770,180.770 252.800,180.992 252.800 C 181.214 252.800,214.538 285.942,255.047 326.448 L 328.699 400.096 335.450 399.857 C 343.167 399.584,343.200 399.581,343.200 399.133 C 343.200 398.950,343.560 398.800,344.000 398.800 C 344.440 398.800,344.800 398.620,344.800 398.400 C 344.800 398.180,345.216 398.000,345.725 398.000 C 346.233 398.000,347.036 397.640,347.508 397.200 C 347.980 396.760,348.604 396.400,348.895 396.400 C 349.186 396.400,349.683 396.040,350.000 395.600 C 350.317 395.160,350.813 394.800,351.102 394.800 C 351.391 394.800,352.746 393.660,354.114 392.266 C 356.727 389.602,357.187 389.009,358.277 386.900 C 358.646 386.185,359.095 385.600,359.274 385.600 C 359.453 385.600,359.600 385.240,359.600 384.800 C 359.600 384.360,359.780 384.000,360.000 384.000 C 360.220 384.000,360.400 383.460,360.400 382.800 C 360.400 382.140,360.580 381.600,360.800 381.600 C 361.020 381.600,361.200 381.060,361.200 380.400 C 361.200 379.740,361.380 379.200,361.600 379.200 C 361.820 379.200,362.000 378.300,362.000 377.200 C 362.000 376.100,362.180 375.200,362.400 375.200 C 362.666 375.200,362.800 343.267,362.800 280.200 C 362.800 219.196,362.661 185.200,362.413 185.200 C 362.200 185.200,361.332 186.145,360.485 187.300 " stroke="none" fill="#e4e6e6" fill-rule="evenodd"></path><path id="path2" d="M111.837 259.563 L -0.126 371.527 0.132 376.038 C 0.274 378.520,0.572 380.732,0.795 380.955 C 1.018 381.178,1.200 381.774,1.200 382.280 C 1.200 382.786,1.380 383.200,1.600 383.200 C 1.820 383.200,2.000 383.560,2.000 384.000 C 2.000 384.440,2.180 384.800,2.400 384.800 C 2.620 384.800,2.800 385.160,2.800 385.600 C 2.800 386.040,2.980 386.400,3.200 386.400 C 3.420 386.400,3.601 386.625,3.602 386.900 C 3.603 387.175,4.143 387.975,4.802 388.678 C 5.461 389.381,6.000 390.061,6.000 390.189 C 6.000 390.997,11.893 395.949,13.900 396.827 C 14.615 397.139,15.200 397.531,15.200 397.698 C 15.200 397.864,15.560 398.000,16.000 398.000 C 16.440 398.000,16.800 398.180,16.800 398.400 C 16.800 398.620,17.214 398.800,17.720 398.800 C 18.226 398.800,18.846 399.006,19.098 399.258 C 19.390 399.550,22.042 399.789,26.398 399.914 L 33.239 400.112 107.178 326.156 C 147.845 285.480,196.167 237.171,214.562 218.803 L 248.006 185.405 247.117 184.203 C 245.815 182.442,231.200 160.433,231.200 160.233 C 231.200 160.140,230.332 158.654,229.271 156.932 C 228.210 155.209,226.577 152.405,225.643 150.700 C 224.708 148.995,223.911 147.600,223.872 147.600 C 223.832 147.600,173.416 197.984,111.837 259.563 " stroke="none" fill="#fbe350" fill-rule="evenodd"></path><path id="path3" d="M79.500 66.689 C 80.215 66.778,81.385 66.778,82.100 66.689 C 82.815 66.601,82.230 66.528,80.800 66.528 C 79.370 66.528,78.785 66.601,79.500 66.689 M80.973 119.600 C 80.973 124.990,81.030 127.195,81.099 124.500 C 81.168 121.805,81.168 117.395,81.099 114.700 C 81.030 112.005,80.973 114.210,80.973 119.600 M28.524 119.000 C 28.526 120.320,28.601 120.812,28.690 120.093 C 28.779 119.374,28.777 118.294,28.686 117.693 C 28.595 117.092,28.522 117.680,28.524 119.000 M88.074 129.899 C 91.745 129.965,97.865 129.965,101.674 129.899 C 105.483 129.834,102.480 129.780,95.000 129.780 C 87.520 129.779,84.403 129.833,88.074 129.899 M79.900 171.489 C 80.615 171.578,81.785 171.578,82.500 171.489 C 83.215 171.401,82.630 171.328,81.200 171.328 C 79.770 171.328,79.185 171.401,79.900 171.489 M107.000 326.400 L 33.401 400.000 181.000 400.000 L 328.600 399.999 254.998 326.400 C 214.516 285.920,181.216 252.800,180.997 252.800 C 180.778 252.800,147.480 285.920,107.000 326.400 " stroke="none" fill="#448bf3" fill-rule="evenodd"></path><path id="path4" d="M25.000 37.600 C 24.864 37.820,23.863 38.000,22.776 38.000 C 21.689 38.000,20.800 38.180,20.800 38.400 C 20.800 38.620,20.260 38.800,19.600 38.800 C 18.940 38.800,18.400 38.980,18.400 39.200 C 18.400 39.420,17.961 39.600,17.424 39.600 C 16.887 39.600,16.336 39.780,16.200 40.000 C 16.064 40.220,15.603 40.400,15.176 40.400 C 14.749 40.400,14.400 40.580,14.400 40.800 C 14.400 41.020,14.175 41.200,13.900 41.200 C 13.625 41.201,12.877 41.651,12.238 42.200 C 11.599 42.750,10.885 43.200,10.651 43.200 C 10.066 43.200,5.200 48.311,5.200 48.926 C 5.200 49.200,4.840 49.683,4.400 50.000 C 3.960 50.317,3.600 50.814,3.600 51.105 C 3.600 51.396,3.240 52.020,2.800 52.492 C 2.360 52.964,2.000 53.767,2.000 54.275 C 2.000 54.784,1.820 55.200,1.600 55.200 C 1.380 55.200,1.200 55.545,1.200 55.967 C 1.200 56.388,0.975 56.808,0.700 56.900 C 0.301 57.033,0.179 88.928,0.098 214.233 L -0.005 371.400 111.798 259.600 C 173.289 198.110,223.600 147.622,223.600 147.404 C 223.600 147.186,222.991 145.745,222.247 144.204 C 218.378 136.190,216.594 131.888,214.532 125.600 C 205.035 96.635,209.523 65.200,226.640 40.800 C 227.335 39.810,228.027 38.595,228.179 38.100 L 228.454 37.200 126.851 37.200 C 59.546 37.200,25.164 37.335,25.000 37.600 M86.800 67.002 C 93.435 67.820,96.038 68.481,101.013 70.614 C 107.511 73.398,115.600 78.876,115.600 80.492 C 115.600 81.047,101.612 95.200,101.063 95.200 C 100.883 95.200,99.984 94.596,99.067 93.857 C 92.862 88.861,83.386 86.529,76.000 88.182 C 71.368 89.218,70.613 89.458,67.897 90.754 C 60.523 94.273,54.471 101.115,51.851 108.895 C 49.149 116.917,49.512 124.673,52.933 132.000 C 56.667 140.000,62.324 145.263,71.000 148.806 C 85.603 154.771,106.175 145.307,108.623 131.500 L 108.889 130.000 95.293 130.000 C 84.248 130.000,81.612 129.897,81.242 129.450 C 80.921 129.064,80.817 126.059,80.893 119.350 L 81.000 109.800 105.658 109.697 L 130.317 109.594 130.758 112.130 C 133.528 128.034,127.852 146.588,116.835 157.647 C 112.536 161.962,103.188 168.000,100.806 168.000 C 100.577 168.000,100.077 168.162,99.695 168.361 C 99.313 168.560,98.190 168.940,97.200 169.207 C 96.210 169.474,94.950 169.831,94.400 170.000 C 88.547 171.800,73.984 171.810,68.400 170.018 C 67.850 169.841,66.050 169.280,64.400 168.771 C 34.971 159.686,20.186 124.839,33.693 96.400 C 43.201 76.379,64.998 64.314,86.800 67.002 " stroke="none" fill="#1aa464" fill-rule="evenodd"></path></g></svg>