<svg id="svg" version="1.1" xmlns="http://www.w3.org/2000/svg" xmlns:xlink="http://www.w3.org/1999/xlink" width="400" height="400" viewBox="0, 0, 400,400"><g id="svgg"><path id="path0" d="M87.891 1.489 C 88.601 1.577,89.861 1.579,90.691 1.492 C 91.521 1.405,90.940 1.333,89.400 1.331 C 87.860 1.329,87.181 1.400,87.891 1.489 M309.091 1.489 C 309.801 1.577,311.061 1.579,311.891 1.492 C 312.721 1.405,312.140 1.333,310.600 1.331 C 309.060 1.329,308.381 1.400,309.091 1.489 M82.400 2.000 C 82.400 2.220,83.401 2.400,84.624 2.400 C 86.004 2.400,86.753 2.248,86.600 2.000 C 86.464 1.780,85.463 1.600,84.376 1.600 C 83.289 1.600,82.400 1.780,82.400 2.000 M313.411 1.982 C 313.243 2.254,313.931 2.400,315.376 2.400 C 316.599 2.400,317.600 2.252,317.600 2.071 C 317.600 1.580,313.711 1.497,313.411 1.982 M323.015 2.824 C 323.296 3.279,324.400 3.327,324.400 2.885 C 324.400 2.712,324.036 2.543,323.591 2.509 C 323.147 2.476,322.887 2.618,323.015 2.824 M70.204 3.594 C 69.900 4.086,70.998 4.373,71.636 3.969 C 71.946 3.773,72.110 3.596,72.000 3.576 C 71.890 3.555,71.486 3.479,71.102 3.405 C 70.717 3.331,70.313 3.416,70.204 3.594 M328.185 3.625 C 328.086 3.785,328.256 4.013,328.563 4.131 C 329.122 4.345,329.600 4.101,329.600 3.600 C 329.600 3.239,328.410 3.260,328.185 3.625 M66.300 4.276 C 65.342 4.526,65.415 5.200,66.400 5.200 C 66.844 5.200,67.200 4.933,67.200 4.600 C 67.200 4.270,67.155 4.021,67.100 4.046 C 67.045 4.072,66.685 4.175,66.300 4.276 M332.800 4.637 C 332.800 4.947,333.160 5.200,333.600 5.200 C 334.040 5.200,334.400 5.041,334.400 4.847 C 334.400 4.652,334.040 4.399,333.600 4.284 C 333.080 4.148,332.800 4.272,332.800 4.637 M339.200 6.400 C 339.200 6.620,339.470 6.800,339.800 6.800 C 340.130 6.800,340.400 6.620,340.400 6.400 C 340.400 6.180,340.130 6.000,339.800 6.000 C 339.470 6.000,339.200 6.180,339.200 6.400 M57.067 7.067 C 56.606 7.527,56.775 8.000,57.400 8.000 C 57.730 8.000,58.000 7.730,58.000 7.400 C 58.000 6.775,57.527 6.606,57.067 7.067 M342.000 7.367 C 342.000 7.715,342.285 8.000,342.633 8.000 C 343.340 8.000,343.217 7.139,342.475 6.892 C 342.214 6.805,342.000 7.018,342.000 7.367 M34.493 20.000 C 34.218 20.440,34.098 20.800,34.225 20.800 C 34.525 20.800,35.600 19.727,35.600 19.429 C 35.600 18.920,34.962 19.249,34.493 20.000 M364.400 19.419 C 364.400 19.905,365.623 20.859,366.058 20.714 C 366.306 20.631,366.035 20.253,365.455 19.873 C 364.875 19.493,364.400 19.289,364.400 19.419 M31.197 22.403 C 30.688 22.844,30.389 23.323,30.533 23.467 C 30.677 23.611,31.156 23.312,31.597 22.803 C 32.855 21.353,32.647 21.145,31.197 22.403 M367.600 21.739 C 367.600 22.162,369.247 23.687,369.467 23.467 C 369.611 23.323,369.312 22.844,368.803 22.403 C 367.902 21.621,367.600 21.455,367.600 21.739 M28.060 25.442 C 27.331 26.266,27.800 26.657,28.581 25.876 C 28.921 25.536,29.200 25.154,29.200 25.029 C 29.200 24.609,28.606 24.824,28.060 25.442 M370.800 25.029 C 370.800 25.453,372.036 26.497,372.267 26.267 C 372.392 26.141,372.217 25.760,371.876 25.419 C 371.241 24.784,370.800 24.624,370.800 25.029 M25.260 28.242 C 24.531 29.066,25.000 29.457,25.781 28.676 C 26.121 28.336,26.400 27.954,26.400 27.829 C 26.400 27.409,25.806 27.624,25.260 28.242 M373.600 27.829 C 373.600 28.253,374.836 29.297,375.067 29.067 C 375.192 28.941,375.017 28.560,374.676 28.219 C 374.041 27.584,373.600 27.424,373.600 27.829 M22.524 30.973 C 21.879 31.708,22.353 32.104,23.048 31.410 C 23.351 31.106,23.600 30.754,23.600 30.629 C 23.600 30.226,23.015 30.413,22.524 30.973 M19.693 34.800 C 19.418 35.240,19.298 35.600,19.425 35.600 C 19.725 35.600,20.800 34.527,20.800 34.229 C 20.800 33.720,20.162 34.049,19.693 34.800 M379.200 34.229 C 379.200 34.653,380.436 35.697,380.667 35.467 C 380.792 35.341,380.617 34.960,380.276 34.619 C 379.641 33.984,379.200 33.824,379.200 34.229 M17.064 38.329 C 16.308 39.164,16.218 39.600,16.800 39.600 C 17.020 39.600,17.200 39.345,17.200 39.033 C 17.200 38.722,17.425 38.386,17.700 38.288 C 17.975 38.190,18.094 37.994,17.964 37.852 C 17.835 37.711,17.430 37.925,17.064 38.329 M382.000 37.938 C 382.000 38.192,382.180 38.400,382.400 38.400 C 382.620 38.400,382.800 38.670,382.800 39.000 C 382.800 39.330,382.980 39.600,383.200 39.600 C 383.841 39.600,383.664 38.982,382.800 38.200 C 382.346 37.789,382.000 37.676,382.000 37.938 M7.039 57.138 C 6.900 57.361,6.982 57.665,7.220 57.812 C 7.835 58.193,8.232 57.672,7.718 57.158 C 7.431 56.871,7.207 56.864,7.039 57.138 M392.188 57.220 C 391.807 57.835,392.328 58.232,392.842 57.718 C 393.129 57.431,393.136 57.207,392.862 57.039 C 392.639 56.900,392.335 56.982,392.188 57.220 M5.200 63.000 C 5.200 63.330,5.380 63.600,5.600 63.600 C 5.820 63.600,6.000 63.330,6.000 63.000 C 6.000 62.670,5.820 62.400,5.600 62.400 C 5.380 62.400,5.200 62.670,5.200 63.000 M394.000 63.000 C 394.000 63.330,394.180 63.600,394.400 63.600 C 394.620 63.600,394.800 63.330,394.800 63.000 C 394.800 62.670,394.620 62.400,394.400 62.400 C 394.180 62.400,394.000 62.670,394.000 63.000 M4.290 65.979 C 4.174 66.422,4.324 66.839,4.644 66.962 C 4.999 67.098,5.200 66.899,5.200 66.411 C 5.200 65.355,4.535 65.039,4.290 65.979 M394.800 66.187 C 394.800 66.866,394.974 67.108,395.356 66.962 C 395.677 66.838,395.826 66.422,395.709 65.974 C 395.420 64.870,394.800 65.016,394.800 66.187 M3.397 69.700 C 3.019 70.635,3.493 71.867,4.025 71.335 C 4.280 71.080,4.290 70.586,4.052 69.968 C 3.727 69.123,3.644 69.089,3.397 69.700 M396.000 70.557 C 396.000 71.472,396.158 71.950,396.410 71.794 C 396.635 71.655,396.762 71.111,396.692 70.586 C 396.478 68.989,396.000 68.969,396.000 70.557 M2.747 73.700 C 2.512 74.140,2.619 76.400,2.874 76.400 C 3.053 76.400,3.200 75.770,3.200 75.000 C 3.200 73.841,2.991 73.242,2.747 73.700 M396.800 75.824 C 396.800 76.404,396.973 76.740,397.200 76.600 C 397.420 76.464,397.600 76.003,397.600 75.576 C 397.600 75.149,397.420 74.800,397.200 74.800 C 396.980 74.800,396.800 75.261,396.800 75.824 M397.600 82.800 C 397.600 83.240,397.780 83.600,398.000 83.600 C 398.220 83.600,398.400 83.240,398.400 82.800 C 398.400 82.360,398.220 82.000,398.000 82.000 C 397.780 82.000,397.600 82.360,397.600 82.800 M1.600 83.000 C 1.600 83.330,1.780 83.600,2.000 83.600 C 2.220 83.600,2.400 83.330,2.400 83.000 C 2.400 82.670,2.220 82.400,2.000 82.400 C 1.780 82.400,1.600 82.670,1.600 83.000 M397.667 85.426 C 397.617 86.182,397.761 86.800,397.987 86.800 C 398.470 86.800,398.552 84.541,398.080 84.249 C 397.904 84.141,397.718 84.670,397.667 85.426 M304.800 103.622 C 288.695 105.605,273.459 111.525,269.069 117.506 C 263.511 125.077,264.124 132.074,271.347 143.516 C 271.926 144.433,272.400 145.269,272.400 145.373 C 272.400 145.476,273.840 148.020,275.600 151.025 C 277.360 154.029,278.800 156.575,278.800 156.682 C 278.800 156.789,279.134 157.354,279.543 157.938 C 279.951 158.522,280.738 159.810,281.291 160.800 C 281.845 161.790,282.632 163.173,283.041 163.874 C 284.057 165.615,283.601 165.851,281.114 164.874 C 275.239 162.565,270.639 162.679,265.238 165.270 C 261.895 166.874,256.400 173.452,256.400 175.851 C 256.400 176.055,256.122 176.619,255.782 177.105 L 255.163 177.987 252.562 175.841 C 244.362 169.078,231.723 166.391,221.182 169.172 C 218.352 169.918,216.759 169.916,215.786 169.165 C 212.281 166.457,202.283 167.776,196.703 171.682 C 195.098 172.806,194.943 172.481,194.698 167.510 C 193.569 144.582,162.065 141.056,156.193 163.200 C 155.802 164.674,155.608 167.458,155.605 171.633 C 155.599 178.912,155.634 178.836,153.243 176.843 C 140.852 166.515,118.796 165.856,105.353 175.413 L 103.434 176.777 101.417 174.790 C 89.907 163.447,70.904 168.761,67.692 184.221 C 67.130 186.929,66.280 186.289,63.843 181.323 C 53.522 160.293,23.886 167.098,25.763 190.067 C 26.088 194.050,25.932 193.665,33.614 209.400 C 43.474 229.595,47.200 237.278,47.200 237.418 C 47.200 237.496,46.064 238.196,44.676 238.972 C 36.937 243.300,32.903 252.308,35.029 260.514 C 37.579 270.352,45.955 275.846,58.200 275.710 C 72.986 275.546,82.927 268.214,87.366 254.200 C 87.714 253.100,88.428 250.850,88.951 249.200 C 89.475 247.550,90.301 244.850,90.786 243.200 C 92.659 236.825,92.936 236.604,94.663 240.100 C 101.344 253.626,116.721 261.134,132.923 258.782 C 143.393 257.263,149.955 254.567,155.417 249.539 C 157.296 247.810,157.353 247.830,159.703 251.025 C 165.681 259.148,178.067 261.301,185.954 255.587 C 188.542 253.713,188.649 253.825,188.916 258.700 C 189.270 265.163,190.724 268.692,194.659 272.648 C 206.073 284.122,225.908 277.274,227.795 261.208 C 228.109 258.530,228.278 258.414,231.874 258.406 C 234.680 258.400,239.801 257.555,241.400 256.835 C 241.840 256.637,243.010 256.176,244.000 255.811 C 253.902 252.162,261.938 241.752,264.388 229.400 C 264.650 228.080,265.030 226.245,265.232 225.323 C 265.434 224.400,265.603 222.600,265.606 221.323 C 265.615 218.133,265.558 218.167,270.800 218.185 C 273.330 218.193,275.985 218.043,276.700 217.850 C 278.136 217.463,278.553 218.243,277.414 219.188 C 273.610 222.346,271.491 230.472,272.981 236.191 C 274.076 240.396,278.252 246.191,280.761 246.988 C 281.222 247.134,281.600 247.422,281.600 247.627 C 281.600 247.832,281.749 248.000,281.932 248.000 C 282.114 248.000,283.664 248.798,285.376 249.774 C 287.088 250.750,289.684 252.031,291.145 252.621 C 292.605 253.211,294.160 253.840,294.600 254.018 C 295.946 254.564,299.282 255.510,301.600 256.002 C 302.810 256.259,304.451 256.634,305.246 256.835 C 314.337 259.131,324.687 251.363,326.138 241.155 C 326.599 237.907,327.282 236.768,327.796 238.388 C 328.216 239.709,332.279 243.864,334.206 244.941 C 342.094 249.349,349.872 248.137,357.469 241.316 C 377.260 223.547,378.514 203.848,360.300 196.840 C 359.695 196.608,359.200 196.237,359.200 196.016 C 359.200 195.796,359.695 195.509,360.300 195.379 C 370.350 193.219,376.570 181.573,372.984 171.631 C 369.541 162.086,359.397 149.319,352.600 145.977 C 344.872 142.177,335.104 144.896,329.525 152.400 C 328.001 154.449,328.040 154.858,327.907 135.382 C 327.811 121.338,327.666 117.137,327.244 116.200 C 325.325 111.944,324.476 110.578,322.530 108.616 C 318.095 104.146,312.756 102.642,304.800 103.622 M313.063 116.621 C 315.754 118.674,315.627 117.039,315.508 148.095 C 315.387 179.569,315.602 177.344,312.516 179.014 C 309.356 180.724,303.600 178.113,303.600 174.970 C 303.600 174.835,303.266 174.246,302.857 173.662 C 302.449 173.078,301.661 171.790,301.107 170.800 C 300.552 169.810,299.476 167.920,298.716 166.600 C 293.529 157.599,289.445 150.557,287.854 147.867 C 286.834 146.144,286.000 144.650,286.000 144.548 C 286.000 144.445,285.370 143.377,284.600 142.173 C 283.830 140.969,283.200 139.917,283.200 139.835 C 283.200 139.753,281.940 137.500,280.400 134.828 C 277.285 129.425,276.968 127.918,278.423 125.450 C 279.817 123.089,287.621 119.650,296.200 117.616 C 306.284 115.226,310.879 114.955,313.063 116.621 M348.128 157.551 C 349.048 158.184,350.610 159.587,351.600 160.669 C 359.566 169.373,363.118 176.640,361.223 180.355 C 360.097 182.563,359.040 183.147,353.200 184.791 C 352.210 185.070,350.590 185.529,349.600 185.811 C 348.610 186.094,347.350 186.444,346.800 186.589 C 346.250 186.735,345.215 187.022,344.500 187.227 C 343.785 187.432,342.615 187.768,341.900 187.972 C 341.185 188.177,339.610 188.639,338.400 189.000 C 328.755 191.874,327.598 191.948,325.262 189.845 C 321.705 186.642,322.013 185.463,329.194 174.800 C 331.936 170.730,335.587 165.296,337.309 162.725 C 341.695 156.177,344.312 154.925,348.128 157.551 M178.600 161.244 C 179.493 161.667,180.730 162.753,181.400 163.701 L 182.600 165.400 182.600 203.400 C 182.600 240.681,182.585 241.426,181.800 242.758 C 178.346 248.619,170.226 247.723,168.055 241.240 C 167.402 239.288,167.410 168.126,168.064 165.943 C 169.499 161.154,174.090 159.106,178.600 161.244 M278.138 176.965 C 303.670 189.139,304.800 189.849,304.800 193.700 C 304.800 197.362,302.730 198.794,294.600 200.758 C 291.740 201.448,288.860 202.175,288.200 202.372 C 287.540 202.570,285.020 203.205,282.600 203.784 C 280.180 204.363,277.570 204.997,276.800 205.193 C 271.707 206.489,271.689 206.491,270.134 205.992 C 266.381 204.786,265.600 202.943,265.600 195.297 C 265.600 178.907,269.685 172.934,278.138 176.965 M210.861 180.410 C 212.238 180.793,214.861 183.184,215.280 184.439 C 215.482 185.045,215.476 185.047,219.480 182.823 C 231.286 176.268,247.113 182.264,251.625 195.000 C 254.690 203.648,254.688 223.088,251.622 230.600 C 251.443 231.040,250.970 232.210,250.573 233.200 C 245.649 245.461,228.877 250.565,218.353 243.005 C 217.278 242.232,216.309 241.600,216.199 241.600 C 216.090 241.600,216.000 245.618,216.000 250.529 C 216.000 260.670,215.682 262.342,213.372 264.371 C 209.565 267.713,203.563 266.378,201.578 261.748 C 200.577 259.414,200.354 187.916,201.338 185.089 C 202.702 181.173,206.640 179.238,210.861 180.410 M47.763 181.072 C 49.864 181.529,51.746 183.981,54.808 190.252 C 56.405 193.523,60.207 201.300,63.256 207.534 C 66.305 213.768,68.800 219.044,68.800 219.258 C 68.800 220.357,69.597 218.886,70.397 216.309 C 70.894 214.709,71.526 212.680,71.801 211.800 C 72.076 210.920,72.702 208.850,73.191 207.200 C 73.681 205.550,74.227 203.840,74.405 203.400 C 74.582 202.960,75.212 200.980,75.803 199.000 C 79.106 187.943,79.691 186.193,80.645 184.526 C 83.767 179.072,91.386 179.527,94.141 185.332 C 95.156 187.470,94.861 190.366,93.199 194.600 C 92.929 195.287,92.388 197.048,90.375 203.800 C 90.178 204.460,89.576 206.350,89.037 208.000 C 87.874 211.562,85.461 219.463,84.761 222.000 C 84.488 222.990,84.115 223.971,83.933 224.180 C 83.750 224.389,83.600 224.849,83.600 225.201 C 83.600 225.554,82.971 227.813,82.201 230.221 C 80.703 234.911,79.438 238.960,77.770 244.400 C 74.861 253.889,73.789 256.223,71.103 258.925 C 62.872 267.201,44.633 264.075,46.761 254.753 C 47.715 250.577,49.843 249.108,55.388 248.801 C 64.227 248.310,64.732 245.608,58.416 232.600 C 51.957 219.296,48.616 212.458,43.271 201.600 C 36.984 188.831,36.611 187.314,38.984 184.169 C 40.846 181.700,43.821 180.155,45.800 180.628 C 46.240 180.733,47.123 180.933,47.763 181.072 M137.518 181.790 C 148.248 185.089,153.588 194.628,153.597 210.513 C 153.603 220.101,154.658 219.600,134.463 219.600 C 116.316 219.600,117.376 219.391,117.687 222.901 C 118.619 233.420,130.072 236.353,139.473 228.479 C 143.446 225.151,145.246 224.505,147.662 225.541 C 152.006 227.403,153.257 232.844,150.346 237.218 C 149.031 239.193,144.990 242.800,144.092 242.800 C 143.858 242.800,143.607 242.945,143.533 243.122 C 143.068 244.245,136.302 246.182,130.749 246.781 C 116.910 248.273,106.839 241.763,103.240 229.000 C 100.053 217.696,101.119 202.102,105.701 193.005 C 110.485 183.506,125.679 178.151,137.518 181.790 M226.376 194.122 C 220.663 195.737,218.635 200.764,218.679 213.200 C 218.736 229.469,224.293 235.654,234.810 231.153 C 241.589 228.252,243.109 206.002,237.177 196.511 C 235.882 194.438,229.920 193.120,226.376 194.122 M125.400 194.747 C 120.453 196.048,116.895 200.351,116.689 205.283 L 116.600 207.400 128.600 207.400 L 140.600 207.400 140.735 206.445 C 141.212 203.073,138.231 197.299,135.164 195.654 C 133.254 194.630,127.779 194.121,125.400 194.747 M334.600 201.333 C 336.800 202.063,341.300 203.522,344.600 204.576 C 347.900 205.629,350.960 206.638,351.400 206.817 C 351.840 206.996,353.190 207.442,354.400 207.807 C 358.538 209.055,359.440 209.640,360.700 211.895 C 363.465 216.842,350.120 235.203,343.763 235.199 C 340.097 235.196,340.336 235.505,325.183 211.156 C 322.197 206.360,322.123 204.277,324.841 201.559 C 326.896 199.504,328.944 199.456,334.600 201.333 M313.429 206.947 C 315.166 208.957,315.171 209.010,314.785 221.991 C 314.198 241.778,314.063 242.512,310.704 244.250 C 309.015 245.123,304.215 244.623,300.600 243.196 C 300.160 243.023,299.170 242.656,298.400 242.382 C 283.187 236.964,281.378 232.614,290.340 223.000 C 291.366 221.900,293.824 219.200,295.802 217.000 C 297.781 214.800,299.490 212.910,299.600 212.800 C 299.710 212.690,301.141 211.096,302.781 209.257 C 307.019 204.505,310.639 203.719,313.429 206.947 M397.600 314.376 C 397.600 314.803,397.780 315.264,398.000 315.400 C 398.227 315.540,398.400 315.204,398.400 314.624 C 398.400 314.061,398.220 313.600,398.000 313.600 C 397.780 313.600,397.600 313.949,397.600 314.376 M1.600 317.176 C 1.600 317.629,1.780 318.000,2.000 318.000 C 2.220 318.000,2.400 317.741,2.400 317.424 C 2.400 317.107,2.220 316.736,2.000 316.600 C 1.780 316.464,1.600 316.723,1.600 317.176 M397.600 317.200 C 397.600 317.640,397.780 318.000,398.000 318.000 C 398.220 318.000,398.400 317.640,398.400 317.200 C 398.400 316.760,398.220 316.400,398.000 316.400 C 397.780 316.400,397.600 316.760,397.600 317.200 M2.667 323.467 C 2.252 323.882,2.353 325.200,2.800 325.200 C 3.020 325.200,3.200 324.750,3.200 324.200 C 3.200 323.153,3.108 323.026,2.667 323.467 M396.800 324.400 C 396.800 324.840,396.980 325.200,397.200 325.200 C 397.420 325.200,397.600 324.840,397.600 324.400 C 397.600 323.960,397.420 323.600,397.200 323.600 C 396.980 323.600,396.800 323.960,396.800 324.400 M3.293 329.380 C 3.249 329.919,3.377 330.462,3.577 330.586 C 4.024 330.862,4.549 329.365,4.202 328.804 C 3.773 328.109,3.378 328.360,3.293 329.380 M396.000 329.624 C 396.000 330.325,396.168 330.743,396.394 330.604 C 396.850 330.322,396.779 328.400,396.313 328.400 C 396.141 328.400,396.000 328.951,396.000 329.624 M4.542 333.051 C 4.029 333.261,4.297 334.800,4.847 334.800 C 5.041 334.800,5.200 334.350,5.200 333.800 C 5.200 333.250,5.155 332.814,5.100 332.832 C 5.045 332.849,4.794 332.948,4.542 333.051 M394.800 333.813 C 394.800 334.356,395.010 334.800,395.267 334.800 C 395.523 334.800,395.615 334.682,395.470 334.537 C 395.325 334.392,395.390 334.053,395.614 333.784 C 395.901 333.438,395.841 333.225,395.410 333.059 C 394.965 332.888,394.800 333.092,394.800 333.813 M394.000 337.000 C 394.000 337.330,394.180 337.600,394.400 337.600 C 394.620 337.600,394.800 337.330,394.800 337.000 C 394.800 336.670,394.620 336.400,394.400 336.400 C 394.180 336.400,394.000 336.670,394.000 337.000 M6.006 339.900 C 6.024 340.777,6.788 341.359,6.794 340.500 C 6.797 340.005,6.620 339.600,6.400 339.600 C 6.180 339.600,6.003 339.735,6.006 339.900 M7.017 342.372 C 6.744 342.814,7.375 343.292,7.744 342.922 C 8.125 342.542,8.054 342.000,7.624 342.000 C 7.417 342.000,7.144 342.168,7.017 342.372 M12.626 354.358 C 12.504 354.555,12.674 354.819,13.002 354.946 C 13.365 355.085,13.600 354.944,13.600 354.587 C 13.600 353.940,12.975 353.793,12.626 354.358 M386.460 354.380 C 386.548 354.644,386.750 354.847,386.910 354.830 C 387.388 354.781,387.296 354.232,386.780 354.060 C 386.516 353.972,386.372 354.116,386.460 354.380 M17.002 361.602 C 17.402 362.044,17.811 362.322,17.912 362.221 C 18.128 362.005,16.988 360.800,16.567 360.800 C 16.407 360.800,16.603 361.161,17.002 361.602 M19.873 365.455 C 20.253 366.035,20.631 366.306,20.714 366.058 C 20.797 365.810,20.593 365.336,20.261 365.004 C 19.316 364.059,19.113 364.295,19.873 365.455 M379.700 364.998 C 378.860 365.952,379.145 366.610,380.000 365.692 C 380.440 365.220,380.800 364.736,380.800 364.617 C 380.800 364.218,380.205 364.424,379.700 364.998 M24.800 371.029 C 24.800 371.453,26.036 372.497,26.267 372.267 C 26.392 372.141,26.217 371.760,25.876 371.419 C 25.241 370.784,24.800 370.624,24.800 371.029 M374.060 371.442 C 373.331 372.266,373.800 372.657,374.581 371.876 C 374.921 371.536,375.200 371.154,375.200 371.029 C 375.200 370.609,374.606 370.824,374.060 371.442 M27.600 373.829 C 27.600 374.253,28.836 375.297,29.067 375.067 C 29.192 374.941,29.017 374.560,28.676 374.219 C 28.041 373.584,27.600 373.424,27.600 373.829 M371.260 374.242 C 370.531 375.066,371.000 375.457,371.781 374.676 C 372.121 374.336,372.400 373.954,372.400 373.829 C 372.400 373.409,371.806 373.624,371.260 374.242 M34.013 379.500 C 34.025 379.803,36.000 381.372,36.000 381.080 C 36.000 380.993,35.664 380.535,35.253 380.061 C 34.494 379.186,33.990 378.958,34.013 379.500 M364.860 379.842 C 364.005 380.808,364.650 380.971,365.649 380.040 C 366.262 379.469,366.367 379.205,365.975 379.215 C 365.659 379.224,365.157 379.505,364.860 379.842 M40.400 384.200 C 40.400 384.530,40.580 384.800,40.800 384.800 C 41.020 384.800,41.200 384.530,41.200 384.200 C 41.200 383.870,41.020 383.600,40.800 383.600 C 40.580 383.600,40.400 383.870,40.400 384.200 M45.026 386.758 C 44.904 386.955,45.074 387.219,45.402 387.346 C 45.765 387.485,46.000 387.344,46.000 386.987 C 46.000 386.340,45.375 386.193,45.026 386.758 M354.000 387.033 C 354.000 387.382,354.214 387.595,354.475 387.508 C 355.217 387.261,355.340 386.400,354.633 386.400 C 354.285 386.400,354.000 386.685,354.000 387.033 M56.892 392.475 C 57.139 393.217,58.000 393.340,58.000 392.633 C 58.000 392.285,57.715 392.000,57.367 392.000 C 57.018 392.000,56.805 392.214,56.892 392.475 M342.000 392.633 C 342.000 392.982,342.214 393.195,342.475 393.108 C 343.217 392.861,343.340 392.000,342.633 392.000 C 342.285 392.000,342.000 392.285,342.000 392.633 M62.600 394.400 C 62.464 394.620,62.723 394.800,63.176 394.800 C 63.629 394.800,64.000 394.620,64.000 394.400 C 64.000 394.180,63.741 394.000,63.424 394.000 C 63.107 394.000,62.736 394.180,62.600 394.400 M336.000 394.400 C 336.000 394.620,336.371 394.800,336.824 394.800 C 337.277 394.800,337.536 394.620,337.400 394.400 C 337.264 394.180,336.893 394.000,336.576 394.000 C 336.259 394.000,336.000 394.180,336.000 394.400 M65.600 395.153 C 65.600 395.348,65.960 395.601,66.400 395.716 C 66.920 395.852,67.200 395.728,67.200 395.363 C 67.200 395.053,66.840 394.800,66.400 394.800 C 65.960 394.800,65.600 394.959,65.600 395.153 M332.800 395.363 C 332.800 395.728,333.080 395.852,333.600 395.716 C 334.040 395.601,334.400 395.348,334.400 395.153 C 334.400 394.959,334.040 394.800,333.600 394.800 C 333.160 394.800,332.800 395.053,332.800 395.363 M70.200 396.400 C 70.336 396.620,70.696 396.800,71.000 396.800 C 71.304 396.800,71.664 396.620,71.800 396.400 C 71.941 396.172,71.596 396.000,71.000 396.000 C 70.404 396.000,70.059 396.172,70.200 396.400 M328.400 396.365 C 328.400 396.771,329.423 396.711,329.855 396.278 C 330.008 396.125,329.743 396.000,329.267 396.000 C 328.790 396.000,328.400 396.164,328.400 396.365 M323.051 397.117 C 322.944 397.291,323.203 397.460,323.628 397.492 C 324.052 397.524,324.400 397.381,324.400 397.175 C 324.400 396.720,323.325 396.673,323.051 397.117 M82.400 398.024 C 82.400 398.257,82.580 398.336,82.800 398.200 C 83.020 398.064,83.200 398.100,83.200 398.279 C 83.200 398.459,84.010 398.541,85.000 398.463 C 87.547 398.260,87.241 397.600,84.600 397.600 C 83.318 397.600,82.400 397.777,82.400 398.024 M313.200 397.960 C 313.200 398.158,314.010 398.384,315.000 398.463 C 315.990 398.541,316.800 398.459,316.800 398.279 C 316.800 398.100,316.980 398.064,317.200 398.200 C 317.420 398.336,317.600 398.257,317.600 398.024 C 317.600 397.777,316.682 397.600,315.400 397.600 C 314.190 397.600,313.200 397.762,313.200 397.960 " stroke="none" fill="#faf8f8" fill-rule="evenodd"></path><path id="path1" d="M92.675 2.033 C 92.467 2.831,92.244 2.861,87.428 2.733 C 84.427 2.654,82.347 2.756,82.271 2.986 C 82.200 3.198,80.401 3.378,78.271 3.386 C 75.449 3.396,74.400 3.535,74.400 3.900 C 74.400 4.234,73.728 4.400,72.371 4.400 C 71.040 4.400,70.122 4.621,69.698 5.044 C 69.215 5.528,68.619 5.629,67.306 5.449 C 66.331 5.316,65.655 5.366,65.777 5.563 C 66.044 5.995,65.072 6.400,63.767 6.400 C 63.235 6.400,62.800 6.580,62.800 6.800 C 62.800 7.020,62.099 7.200,61.243 7.200 C 60.228 7.200,59.605 7.409,59.455 7.800 C 59.329 8.130,58.780 8.400,58.236 8.400 C 57.692 8.400,57.125 8.597,56.977 8.838 C 56.828 9.078,56.277 9.193,55.753 9.093 C 55.126 8.973,54.800 9.097,54.800 9.455 C 54.800 9.755,54.436 10.000,53.992 10.000 C 53.548 10.000,52.471 10.450,51.600 11.000 C 50.729 11.550,49.742 12.000,49.408 12.000 C 49.074 12.000,48.800 12.180,48.800 12.400 C 48.800 12.620,48.545 12.800,48.232 12.800 C 47.519 12.800,45.206 14.098,45.203 14.500 C 45.201 14.665,44.840 14.800,44.400 14.800 C 43.960 14.800,43.600 14.980,43.600 15.200 C 43.600 15.420,43.330 15.600,43.000 15.600 C 42.670 15.600,42.400 15.751,42.400 15.936 C 42.400 16.288,40.488 17.352,39.800 17.382 C 39.580 17.392,39.069 17.809,38.665 18.308 C 38.260 18.807,37.450 19.464,36.865 19.768 C 36.279 20.072,35.134 20.968,34.320 21.760 C 33.506 22.552,32.694 23.200,32.517 23.200 C 32.340 23.200,31.645 23.785,30.973 24.500 C 30.302 25.215,28.953 26.540,27.976 27.443 C 26.999 28.347,25.438 29.967,24.508 31.043 C 23.577 32.120,22.340 33.540,21.758 34.200 C 21.176 34.860,20.271 36.075,19.746 36.900 C 19.220 37.724,18.451 38.611,18.035 38.871 C 17.620 39.130,17.358 39.547,17.454 39.797 C 17.550 40.047,17.172 40.745,16.614 41.347 C 16.056 41.949,15.600 42.702,15.600 43.021 C 15.600 43.339,15.420 43.600,15.200 43.600 C 14.980 43.600,14.800 43.960,14.800 44.400 C 14.800 44.840,14.632 45.200,14.427 45.200 C 14.222 45.200,13.936 45.573,13.791 46.029 C 13.646 46.485,13.314 46.776,13.052 46.675 C 12.756 46.562,12.580 46.892,12.588 47.546 C 12.595 48.163,12.399 48.561,12.114 48.505 C 11.847 48.452,11.719 48.644,11.829 48.931 C 11.939 49.218,11.754 49.981,11.417 50.626 C 11.080 51.272,10.804 52.025,10.802 52.300 C 10.801 52.575,10.620 52.800,10.400 52.800 C 10.180 52.800,10.000 53.166,10.000 53.613 C 10.000 54.059,9.757 54.518,9.459 54.633 C 9.129 54.759,8.991 55.221,9.106 55.820 C 9.235 56.494,9.113 56.800,8.716 56.800 C 8.302 56.800,8.188 57.139,8.314 57.995 C 8.438 58.841,8.301 59.263,7.845 59.438 C 7.430 59.597,7.200 60.162,7.200 61.019 C 7.200 61.753,7.020 62.464,6.800 62.600 C 6.580 62.736,6.400 63.292,6.400 63.836 C 6.400 64.486,6.102 64.936,5.532 65.147 C 4.956 65.360,4.821 65.566,5.132 65.758 C 5.781 66.159,5.713 67.974,4.998 69.346 C 4.669 69.976,4.400 71.262,4.400 72.203 C 4.400 73.307,4.200 73.991,3.836 74.131 C 3.398 74.299,3.322 74.908,3.497 76.835 C 3.686 78.926,3.609 79.404,3.007 79.844 C 2.428 80.268,2.344 80.690,2.565 82.072 C 3.009 84.848,2.392 93.200,1.743 93.200 C 1.287 93.200,1.200 110.284,1.200 200.000 C 1.200 289.716,1.287 306.800,1.743 306.800 C 2.392 306.800,3.009 315.152,2.565 317.928 C 2.344 319.310,2.428 319.732,3.007 320.156 C 3.607 320.595,3.686 321.074,3.499 323.139 C 3.322 325.092,3.392 325.600,3.838 325.600 C 4.257 325.600,4.400 326.201,4.400 327.967 C 4.400 329.504,4.575 330.392,4.900 330.500 C 5.214 330.605,5.400 331.435,5.400 332.729 C 5.400 334.010,5.589 334.864,5.900 334.983 C 6.175 335.089,6.400 335.620,6.400 336.164 C 6.400 336.708,6.580 337.264,6.800 337.400 C 7.020 337.536,7.200 338.245,7.200 338.975 C 7.200 339.705,7.484 340.538,7.832 340.827 C 8.194 341.127,8.391 341.737,8.291 342.256 C 8.186 342.808,8.347 343.248,8.705 343.385 C 9.067 343.524,9.209 343.922,9.076 344.429 C 8.946 344.929,9.084 345.334,9.431 345.467 C 9.744 345.587,10.000 345.910,10.000 346.183 C 10.000 346.457,10.459 347.544,11.020 348.599 C 11.581 349.655,11.948 350.759,11.835 351.054 C 11.721 351.349,11.847 351.548,12.114 351.495 C 12.399 351.439,12.595 351.837,12.588 352.454 C 12.580 353.108,12.756 353.438,13.052 353.325 C 13.314 353.224,13.646 353.515,13.791 353.971 C 13.936 354.427,14.222 354.800,14.427 354.800 C 14.632 354.800,14.800 355.160,14.800 355.600 C 14.800 356.040,14.980 356.400,15.200 356.400 C 15.420 356.400,15.600 356.670,15.600 357.000 C 15.600 357.330,15.780 357.600,16.000 357.600 C 16.220 357.600,16.400 357.848,16.400 358.151 C 16.400 358.454,16.678 358.933,17.018 359.215 C 17.358 359.497,17.545 359.967,17.433 360.258 C 17.321 360.549,17.576 360.973,18.000 361.200 C 18.423 361.427,19.349 362.464,20.057 363.506 C 20.765 364.548,21.762 365.796,22.272 366.281 C 22.783 366.765,23.200 367.288,23.200 367.442 C 23.200 368.185,35.434 379.600,36.229 379.600 C 36.492 379.600,37.326 380.286,38.083 381.123 C 38.840 381.961,39.644 382.585,39.870 382.510 C 40.095 382.435,40.509 382.649,40.789 382.987 C 41.069 383.324,41.546 383.600,41.849 383.600 C 42.152 383.600,42.400 383.780,42.400 384.000 C 42.400 384.220,42.670 384.400,43.000 384.400 C 43.330 384.400,43.600 384.580,43.600 384.800 C 43.600 385.020,43.882 385.200,44.227 385.200 C 44.571 385.200,45.443 385.650,46.164 386.200 C 46.886 386.750,47.774 387.200,48.138 387.200 C 48.502 387.200,48.800 387.380,48.800 387.600 C 48.800 387.820,49.055 388.000,49.368 388.000 C 50.035 388.000,52.540 389.265,52.733 389.700 C 52.807 389.865,53.302 390.000,53.833 390.000 C 54.397 390.000,54.800 390.234,54.800 390.563 C 54.800 390.929,55.080 391.052,55.602 390.915 C 56.043 390.800,56.685 390.939,57.028 391.223 C 57.371 391.508,58.123 391.762,58.698 391.787 C 59.273 391.812,59.817 392.050,59.905 392.316 C 59.994 392.582,60.682 392.800,61.433 392.800 C 62.185 392.800,62.800 392.980,62.800 393.200 C 62.800 393.420,63.436 393.600,64.213 393.600 C 65.118 393.600,65.710 393.822,65.863 394.219 C 66.006 394.593,66.515 394.806,67.150 394.759 C 69.164 394.607,70.090 394.789,69.893 395.300 C 69.749 395.673,70.266 395.764,71.925 395.659 C 73.461 395.561,74.282 395.685,74.575 396.059 C 74.876 396.442,76.044 396.600,78.567 396.600 C 80.647 396.600,82.190 396.771,82.270 397.010 C 82.356 397.269,83.954 397.363,86.600 397.265 C 91.602 397.080,93.663 397.370,93.339 398.215 C 93.142 398.728,106.344 398.800,199.957 398.800 C 294.051 398.800,306.800 398.729,306.800 398.208 C 306.800 397.322,308.334 397.096,313.201 397.262 C 315.955 397.356,317.646 397.261,317.731 397.006 C 317.809 396.772,319.374 396.600,321.433 396.600 C 323.956 396.600,325.124 396.442,325.425 396.059 C 325.718 395.685,326.539 395.561,328.075 395.659 C 329.595 395.755,330.245 395.659,330.128 395.354 C 329.924 394.825,332.110 394.314,333.045 394.673 C 333.441 394.825,333.845 394.662,334.069 394.262 C 334.302 393.846,334.952 393.600,335.820 393.600 C 336.579 393.600,337.200 393.420,337.200 393.200 C 337.200 392.980,337.815 392.800,338.567 392.800 C 339.318 392.800,340.006 392.582,340.095 392.316 C 340.183 392.050,340.727 391.812,341.302 391.787 C 341.877 391.762,342.629 391.508,342.972 391.223 C 343.315 390.939,343.957 390.800,344.398 390.915 C 344.920 391.052,345.200 390.929,345.200 390.563 C 345.200 390.229,345.607 390.000,346.200 390.000 C 346.750 390.000,347.200 389.860,347.200 389.688 C 347.200 389.516,348.100 389.027,349.200 388.600 C 350.300 388.173,351.200 387.684,351.200 387.512 C 351.200 387.340,351.498 387.200,351.862 387.200 C 352.226 387.200,353.114 386.750,353.836 386.200 C 354.557 385.650,355.429 385.200,355.773 385.200 C 356.118 385.200,356.400 385.020,356.400 384.800 C 356.400 384.580,356.670 384.400,357.000 384.400 C 357.330 384.400,357.600 384.220,357.600 384.000 C 357.600 383.780,357.827 383.600,358.104 383.600 C 358.381 383.600,359.093 383.150,359.687 382.600 C 360.280 382.050,360.884 381.600,361.029 381.600 C 361.611 381.600,366.667 377.700,368.679 375.700 C 369.398 374.985,370.092 374.400,370.222 374.400 C 370.539 374.400,371.600 373.322,371.600 373.000 C 371.600 372.666,372.666 371.600,373.000 371.600 C 373.310 371.600,374.400 370.544,374.400 370.245 C 374.400 370.128,375.119 369.299,375.997 368.403 C 376.876 367.507,378.349 365.744,379.272 364.487 C 380.195 363.229,381.096 362.140,381.275 362.067 C 381.454 361.993,381.600 361.705,381.600 361.425 C 381.600 361.146,382.050 360.431,382.600 359.838 C 383.150 359.244,383.600 358.581,383.600 358.363 C 383.600 358.145,383.960 357.580,384.400 357.108 C 384.840 356.636,385.200 356.000,385.200 355.696 C 385.200 355.392,385.425 354.892,385.700 354.585 C 386.944 353.198,387.200 352.794,387.200 352.217 C 387.200 351.878,387.380 351.600,387.600 351.600 C 387.820 351.600,388.000 351.234,388.000 350.787 C 388.000 350.341,388.225 349.888,388.500 349.783 C 388.775 349.677,389.028 349.103,389.063 348.508 C 389.098 347.912,389.323 347.359,389.563 347.279 C 389.803 347.199,390.000 346.783,390.000 346.354 C 390.000 345.926,390.250 345.479,390.556 345.362 C 390.876 345.239,391.026 344.822,390.910 344.379 C 390.785 343.898,390.956 343.515,391.367 343.357 C 391.801 343.191,391.941 342.843,391.779 342.333 C 391.643 341.907,391.817 341.128,392.167 340.594 C 392.515 340.063,392.800 339.172,392.800 338.614 C 392.800 338.056,392.980 337.600,393.200 337.600 C 393.420 337.600,393.600 337.006,393.600 336.280 C 393.600 335.554,393.816 334.744,394.080 334.480 C 394.344 334.216,394.599 333.240,394.646 332.311 C 394.694 331.382,394.928 330.557,395.167 330.478 C 395.413 330.396,395.600 329.310,395.600 327.967 C 395.600 326.217,395.744 325.600,396.154 325.600 C 396.591 325.600,396.664 325.048,396.499 322.993 C 396.329 320.879,396.421 320.240,396.982 319.620 C 397.486 319.063,397.601 318.516,397.403 317.615 C 396.923 315.429,397.618 306.721,398.253 306.965 C 398.715 307.142,398.800 290.512,398.800 200.000 C 398.800 109.772,398.714 92.858,398.256 93.034 C 397.596 93.287,396.972 85.192,397.421 82.200 C 397.647 80.690,397.569 80.266,396.985 79.839 C 396.382 79.398,396.313 78.943,396.531 76.859 C 396.742 74.836,396.682 74.400,396.194 74.400 C 395.736 74.400,395.600 73.860,395.600 72.033 C 395.600 70.496,395.425 69.608,395.100 69.500 C 394.781 69.393,394.610 68.589,394.629 67.282 C 394.648 65.928,394.478 65.162,394.129 65.028 C 393.838 64.916,393.600 64.380,393.600 63.836 C 393.600 63.292,393.420 62.736,393.200 62.600 C 392.980 62.464,392.800 61.811,392.800 61.148 C 392.800 60.485,392.514 59.657,392.165 59.308 C 391.810 58.953,391.608 58.270,391.706 57.757 C 391.814 57.193,391.656 56.754,391.295 56.615 C 390.948 56.482,390.791 56.076,390.910 55.621 C 391.026 55.178,390.876 54.761,390.556 54.638 C 390.250 54.521,390.000 54.059,390.000 53.613 C 390.000 53.166,389.834 52.800,389.632 52.800 C 389.429 52.800,389.145 52.262,389.001 51.605 C 388.857 50.947,388.572 50.306,388.369 50.181 C 388.166 50.055,388.000 49.603,388.000 49.176 C 388.000 48.749,387.820 48.400,387.600 48.400 C 387.380 48.400,387.200 48.040,387.200 47.600 C 387.200 47.160,387.061 46.800,386.891 46.800 C 386.721 46.800,386.228 46.125,385.795 45.300 C 385.362 44.475,384.845 43.683,384.646 43.541 C 384.448 43.398,384.384 42.903,384.505 42.440 C 384.636 41.941,384.565 41.698,384.331 41.843 C 383.908 42.104,382.534 40.423,382.714 39.866 C 382.774 39.683,382.353 39.163,381.779 38.712 C 381.103 38.181,380.804 37.628,380.930 37.145 C 381.046 36.702,380.960 36.501,380.718 36.651 C 380.494 36.789,380.196 36.720,380.055 36.497 C 377.873 33.033,366.316 21.680,362.788 19.534 C 362.186 19.168,361.431 18.494,361.111 18.037 C 360.790 17.579,360.414 17.319,360.275 17.458 C 360.136 17.598,359.399 17.236,358.638 16.656 C 357.876 16.075,357.061 15.600,356.827 15.600 C 356.592 15.600,356.400 15.420,356.400 15.200 C 356.400 14.980,356.040 14.800,355.600 14.800 C 355.160 14.800,354.799 14.665,354.797 14.500 C 354.794 14.098,352.481 12.800,351.768 12.800 C 351.455 12.800,351.200 12.620,351.200 12.400 C 351.200 12.180,350.926 12.000,350.592 12.000 C 350.258 12.000,349.271 11.550,348.400 11.000 C 347.529 10.450,346.452 10.000,346.008 10.000 C 345.564 10.000,345.200 9.755,345.200 9.455 C 345.200 9.097,344.874 8.973,344.247 9.093 C 343.723 9.193,343.172 9.078,343.023 8.838 C 342.875 8.597,342.308 8.400,341.764 8.400 C 341.220 8.400,340.671 8.130,340.545 7.800 C 340.395 7.409,339.772 7.200,338.757 7.200 C 337.901 7.200,337.200 7.020,337.200 6.800 C 337.200 6.580,336.654 6.400,335.987 6.400 C 335.290 6.400,334.679 6.150,334.550 5.813 C 334.380 5.370,333.908 5.283,332.635 5.457 C 331.382 5.629,330.779 5.522,330.302 5.044 C 329.878 4.621,328.960 4.400,327.629 4.400 C 326.316 4.400,325.635 4.239,325.700 3.943 C 325.769 3.627,324.570 3.466,321.827 3.423 C 319.641 3.388,317.796 3.188,317.727 2.980 C 317.653 2.757,315.516 2.655,312.572 2.733 C 307.756 2.861,307.533 2.831,307.325 2.033 L 307.107 1.200 200.000 1.200 L 92.893 1.200 92.675 2.033 M1.309 85.200 C 1.309 86.190,1.387 86.595,1.482 86.100 C 1.578 85.605,1.578 84.795,1.482 84.300 C 1.387 83.805,1.309 84.210,1.309 85.200 M314.800 103.259 C 320.445 104.856,325.301 109.460,327.605 115.400 C 328.533 117.791,328.800 122.562,328.800 136.732 L 328.800 151.972 331.556 149.216 C 338.712 142.060,349.444 141.615,357.061 148.158 C 362.618 152.932,371.600 164.613,371.600 167.066 C 371.600 167.360,371.780 167.600,372.000 167.600 C 372.220 167.600,372.400 167.924,372.400 168.320 C 372.400 168.716,372.550 169.211,372.734 169.420 C 375.395 172.449,375.156 182.741,372.328 186.862 C 371.928 187.446,371.600 188.100,371.600 188.316 C 371.600 189.799,363.558 195.600,361.502 195.600 C 360.356 195.600,361.058 196.330,363.131 197.296 C 364.159 197.775,365.238 198.400,365.529 198.684 C 365.819 198.968,366.194 199.200,366.361 199.200 C 368.343 199.200,372.873 206.504,373.835 211.254 C 376.491 224.360,356.924 248.400,343.600 248.400 C 338.059 248.400,327.799 242.440,327.566 239.085 C 327.548 238.818,327.200 240.071,326.794 241.868 C 325.045 249.609,320.795 254.456,313.537 256.983 C 311.611 257.654,305.023 257.826,303.519 257.245 C 303.013 257.050,301.610 256.667,300.400 256.394 C 297.670 255.779,294.822 254.899,293.905 254.387 C 293.523 254.174,292.977 254.000,292.692 254.000 C 290.970 254.000,280.380 247.857,277.354 245.104 C 271.116 239.427,270.061 228.743,275.011 221.362 L 276.683 218.869 271.580 218.869 L 266.477 218.869 266.220 222.134 C 265.894 226.294,264.727 232.043,263.609 235.000 C 262.027 239.187,260.520 242.164,258.445 245.202 C 257.100 247.170,251.213 252.881,249.788 253.599 C 249.135 253.929,248.510 254.298,248.400 254.419 C 246.686 256.310,237.156 258.953,230.801 259.301 L 229.003 259.400 228.474 261.600 C 227.425 265.960,227.017 267.038,225.496 269.483 C 217.589 282.183,199.271 282.133,191.223 269.389 C 190.330 267.976,189.600 266.491,189.600 266.090 C 189.600 265.688,189.435 265.189,189.232 264.980 C 188.696 264.425,188.000 260.217,188.000 257.527 C 188.000 255.078,187.856 254.859,186.831 255.748 C 179.005 262.542,164.337 259.749,158.220 250.300 C 157.306 248.888,156.905 248.919,155.200 250.530 C 152.927 252.678,145.817 256.800,144.384 256.800 C 144.167 256.800,143.677 256.962,143.295 257.161 C 139.096 259.343,125.319 260.368,118.726 258.987 C 107.682 256.675,99.090 250.283,94.192 240.733 L 93.029 238.466 92.552 239.933 C 92.290 240.740,91.589 243.020,90.995 245.000 C 90.401 246.980,89.777 248.960,89.607 249.400 C 89.437 249.840,88.787 251.820,88.162 253.800 C 87.100 257.166,84.654 262.750,84.045 263.200 C 83.896 263.310,83.115 264.309,82.311 265.421 C 80.797 267.512,77.089 270.936,75.251 271.939 C 72.729 273.317,70.365 274.400,69.882 274.400 C 69.595 274.400,69.189 274.551,68.980 274.736 C 67.094 276.401,53.219 276.801,48.800 275.317 C 33.940 270.326,29.118 254.340,38.952 242.668 C 40.449 240.892,44.971 237.600,45.915 237.600 C 46.665 237.600,47.242 238.870,36.196 216.200 C 33.623 210.920,30.288 204.080,28.784 201.000 C 27.280 197.920,25.834 194.590,25.571 193.600 C 22.793 183.134,28.399 172.909,39.200 168.740 C 40.906 168.082,49.830 167.999,51.240 168.629 C 58.253 171.763,61.259 174.552,64.225 180.680 C 66.380 185.133,66.689 185.353,67.400 182.945 C 69.343 176.366,73.481 172.061,81.160 168.629 C 83.908 167.401,93.203 168.296,96.200 170.077 C 96.860 170.469,97.772 170.955,98.227 171.157 C 98.682 171.359,100.049 172.512,101.266 173.719 L 103.478 175.913 106.439 173.975 C 108.068 172.909,109.591 172.028,109.825 172.018 C 110.059 172.008,111.139 171.575,112.225 171.056 C 113.311 170.536,115.190 169.892,116.400 169.625 C 117.610 169.357,119.152 168.973,119.827 168.770 C 124.338 167.414,137.747 168.146,142.800 170.025 C 144.580 170.687,150.898 173.927,151.184 174.325 C 151.303 174.490,152.210 175.212,153.200 175.930 L 155.000 177.234 155.221 169.917 C 155.351 165.599,155.642 162.108,155.930 161.400 C 157.266 158.120,158.434 156.360,160.998 153.766 C 163.580 151.155,164.852 150.332,169.561 148.229 C 170.089 147.993,172.699 147.811,175.361 147.824 C 186.894 147.883,194.695 155.650,195.543 167.919 L 195.800 171.638 197.200 170.596 C 198.582 169.566,199.663 169.016,202.400 167.947 C 205.310 166.810,214.932 167.436,216.580 168.870 C 217.073 169.298,219.329 169.297,219.820 168.868 C 220.615 168.174,225.974 167.443,230.200 167.451 C 235.197 167.462,239.870 168.315,243.600 169.898 C 248.114 171.813,251.263 173.720,253.838 176.095 L 255.077 177.238 255.801 175.319 C 259.492 165.537,270.248 160.280,279.703 163.637 C 282.566 164.653,282.744 164.530,281.429 162.446 C 280.863 161.549,280.400 160.726,280.400 160.616 C 280.400 160.506,279.770 159.431,279.000 158.227 C 278.230 157.023,277.600 155.955,277.600 155.852 C 277.600 155.750,276.820 154.346,275.867 152.733 C 274.173 149.864,273.073 147.935,270.946 144.100 C 270.367 143.055,269.756 142.020,269.589 141.800 C 269.244 141.345,267.896 138.965,266.646 136.600 C 263.288 130.250,264.496 121.550,269.511 115.964 C 270.933 114.380,275.844 110.800,276.595 110.800 C 276.712 110.800,277.572 110.465,278.504 110.057 C 281.341 108.813,282.521 108.350,284.400 107.742 C 285.390 107.422,286.560 107.011,287.000 106.830 C 288.116 106.370,291.780 105.365,294.400 104.801 C 295.610 104.540,297.230 104.176,298.000 103.990 C 299.317 103.673,304.487 102.951,307.600 102.649 C 309.478 102.466,313.077 102.772,314.800 103.259 M305.800 116.416 C 304.920 116.591,303.030 116.941,301.600 117.193 C 297.473 117.919,293.460 118.841,292.705 119.236 C 292.323 119.436,291.745 119.600,291.419 119.600 C 291.093 119.600,290.146 119.895,289.314 120.255 C 288.481 120.616,287.440 121.042,287.000 121.202 C 277.500 124.658,276.421 126.827,280.634 134.000 C 283.577 139.012,285.446 142.274,287.510 146.000 C 288.058 146.990,288.644 147.980,288.812 148.200 C 289.074 148.545,290.165 150.465,291.764 153.400 C 292.004 153.840,292.290 154.290,292.400 154.400 C 292.580 154.580,293.367 155.957,294.571 158.200 C 294.807 158.640,295.090 159.090,295.200 159.200 C 295.310 159.310,295.596 159.760,295.836 160.200 C 296.549 161.508,298.201 164.426,299.800 167.200 C 300.624 168.630,301.658 170.430,302.097 171.200 C 305.596 177.327,305.787 177.588,307.400 178.444 C 309.577 179.598,311.632 179.248,313.472 177.408 L 314.800 176.080 314.800 147.694 C 314.800 119.513,314.794 119.300,313.965 118.246 C 312.304 116.135,309.902 115.597,305.800 116.416 M343.000 157.385 C 341.973 157.844,339.200 160.443,339.200 160.947 C 339.200 161.098,335.280 166.974,333.828 169.000 C 333.513 169.440,331.159 172.950,328.598 176.800 L 323.941 183.800 324.104 185.905 C 324.376 189.430,327.191 191.306,330.833 190.389 C 331.805 190.145,333.050 189.854,333.600 189.742 C 334.150 189.631,334.960 189.398,335.400 189.225 C 336.579 188.762,341.116 187.446,345.400 186.326 C 346.280 186.096,347.450 185.765,348.000 185.591 C 349.538 185.104,353.220 184.038,355.000 183.565 C 362.277 181.629,362.804 178.581,357.501 169.096 C 357.226 168.603,356.904 168.110,356.787 168.000 C 356.670 167.890,355.998 167.003,355.292 166.028 C 350.256 159.069,345.972 156.056,343.000 157.385 M271.367 176.740 C 268.950 177.866,268.134 180.015,266.417 189.767 C 264.507 200.615,267.377 206.610,273.800 205.190 C 274.900 204.947,276.340 204.658,277.000 204.547 C 277.660 204.436,278.560 204.200,279.000 204.023 C 279.440 203.845,281.150 203.388,282.800 203.006 C 284.450 202.625,286.385 202.152,287.100 201.956 C 287.815 201.760,288.985 201.441,289.700 201.247 C 290.415 201.053,293.223 200.378,295.940 199.747 C 302.538 198.215,303.787 197.249,303.787 193.677 C 303.787 191.681,303.620 191.073,302.848 190.251 C 301.980 189.327,292.510 184.400,291.602 184.400 C 291.381 184.400,291.200 184.220,291.200 184.000 C 291.200 183.780,290.989 183.600,290.731 183.600 C 290.473 183.600,286.946 181.966,282.893 179.969 C 274.654 175.909,273.716 175.645,271.367 176.740 M326.119 201.184 C 323.608 202.715,322.895 205.917,324.447 208.688 C 324.913 209.520,326.083 211.421,327.047 212.912 C 328.011 214.404,328.800 215.709,328.800 215.812 C 328.800 215.914,329.430 216.875,330.200 217.947 C 330.970 219.019,331.600 220.037,331.600 220.210 C 331.600 220.383,332.050 221.114,332.600 221.836 C 333.150 222.557,333.600 223.324,333.600 223.540 C 333.600 223.756,333.735 223.993,333.900 224.067 C 334.065 224.140,335.247 225.941,336.526 228.070 C 340.193 234.171,342.020 235.532,345.065 234.431 C 348.647 233.136,356.538 224.165,359.342 218.200 C 362.228 212.062,361.128 210.727,350.304 207.222 C 346.067 205.850,342.240 204.586,341.800 204.413 C 341.360 204.240,339.380 203.591,337.400 202.972 C 335.420 202.352,333.530 201.722,333.200 201.572 C 330.258 200.231,327.894 200.102,326.119 201.184 M307.066 206.196 C 306.443 206.521,305.453 207.304,304.866 207.936 C 303.545 209.359,298.459 214.989,295.596 218.200 C 294.418 219.520,293.173 220.870,292.828 221.201 C 292.482 221.531,291.031 223.151,289.601 224.801 C 288.172 226.450,286.704 228.131,286.339 228.535 C 284.460 230.617,286.086 236.800,288.513 236.800 C 288.713 236.800,289.388 237.164,290.013 237.609 C 291.668 238.788,296.206 240.952,299.200 241.992 C 309.799 245.671,313.611 244.306,313.592 236.839 C 313.588 235.167,313.799 228.580,314.061 222.200 C 314.639 208.132,314.300 206.640,310.341 205.848 C 308.605 205.501,308.347 205.528,307.066 206.196 M1.309 314.800 C 1.309 315.790,1.387 316.195,1.482 315.700 C 1.578 315.205,1.578 314.395,1.482 313.900 C 1.387 313.405,1.309 313.810,1.309 314.800 " stroke="none" fill="#d42323" fill-rule="evenodd"></path><path id="path2" d="M171.559 162.170 C 168.338 164.358,168.600 160.690,168.600 203.600 C 168.600 246.738,168.310 242.976,171.792 245.016 C 175.494 247.186,180.012 245.695,181.542 241.800 C 182.523 239.301,181.973 165.493,180.963 164.129 C 178.701 161.076,174.467 160.194,171.559 162.170 M203.824 182.555 C 201.440 184.939,201.538 183.016,201.678 225.000 L 201.800 261.400 202.782 262.709 C 205.776 266.701,211.531 266.578,214.087 262.468 C 214.964 261.058,215.005 260.604,215.126 251.007 C 215.265 239.985,215.331 239.730,217.531 241.661 C 221.579 245.216,227.674 246.608,234.000 245.422 C 247.757 242.844,253.018 233.750,252.985 212.600 C 252.967 201.025,252.552 198.452,249.757 192.600 C 244.262 181.095,229.193 177.217,217.970 184.419 C 215.903 185.746,214.800 185.924,214.800 184.931 C 214.800 184.564,213.987 183.484,212.993 182.531 C 210.254 179.907,206.462 179.916,203.824 182.555 M42.200 182.067 C 37.529 184.651,37.309 187.864,41.252 195.951 C 42.820 199.168,45.859 205.400,48.004 209.800 C 50.150 214.200,53.740 221.580,55.984 226.200 C 58.227 230.820,60.498 235.450,61.029 236.489 C 65.303 244.837,63.626 248.943,55.800 249.293 C 46.805 249.696,43.771 258.372,51.375 261.946 C 53.339 262.869,61.710 263.208,63.681 262.444 C 71.710 259.330,73.131 257.427,77.002 244.600 C 77.799 241.960,78.886 238.450,79.418 236.800 C 80.559 233.257,81.183 231.255,82.408 227.200 C 84.038 221.804,85.259 217.842,86.045 215.400 C 86.470 214.080,86.979 212.460,87.176 211.800 C 87.374 211.140,88.284 208.170,89.200 205.200 C 90.116 202.230,91.055 199.170,91.288 198.400 C 91.520 197.630,91.848 196.640,92.015 196.200 C 95.546 186.908,93.816 181.600,87.256 181.600 C 82.936 181.600,81.608 182.814,79.799 188.416 C 79.198 190.277,78.568 192.160,78.399 192.600 C 78.230 193.040,77.870 194.210,77.599 195.200 C 77.329 196.190,76.959 197.450,76.778 198.000 C 76.477 198.913,73.726 207.844,72.712 211.200 C 72.480 211.970,72.154 212.960,71.989 213.400 C 71.824 213.840,71.367 215.370,70.974 216.800 C 70.581 218.230,70.089 219.625,69.881 219.900 C 69.021 221.035,69.921 222.708,55.246 192.715 C 50.064 182.123,49.592 181.591,45.407 181.612 C 44.083 181.619,42.640 181.823,42.200 182.067 M122.000 182.035 C 117.336 183.358,115.977 183.881,114.000 185.113 C 109.519 187.905,106.938 191.205,104.389 197.400 C 104.003 198.340,103.818 199.197,102.792 204.800 C 101.506 211.827,101.826 220.696,103.630 228.000 C 105.889 237.149,111.848 243.496,120.200 245.649 C 126.934 247.385,140.846 245.191,144.613 241.800 C 144.858 241.580,145.675 240.976,146.429 240.458 C 149.860 238.102,151.960 233.504,151.035 230.371 C 149.607 225.536,145.467 224.550,141.123 228.009 C 134.327 233.419,129.639 234.791,124.237 232.951 C 120.291 231.606,116.800 226.397,116.800 221.854 C 116.800 219.155,116.515 219.200,133.672 219.200 C 154.026 219.200,152.800 219.788,152.800 210.021 C 152.800 195.173,148.036 186.169,138.367 182.744 C 135.486 181.724,124.738 181.258,122.000 182.035 M235.400 194.338 C 237.020 195.256,239.200 197.864,239.200 198.884 C 239.200 199.190,239.350 199.611,239.533 199.820 C 241.950 202.582,241.963 221.321,239.551 226.095 C 239.358 226.477,239.200 226.988,239.200 227.231 C 239.200 232.733,225.885 234.782,221.785 229.910 C 216.120 223.177,216.424 201.026,222.257 195.547 C 224.942 193.024,231.944 192.380,235.400 194.338 M132.400 194.017 C 137.420 195.125,140.148 198.392,141.226 204.583 C 141.931 208.631,142.675 208.400,128.925 208.400 C 121.571 208.400,116.857 208.244,116.374 207.986 C 115.557 207.549,115.223 204.280,115.948 203.832 C 116.140 203.714,116.407 203.064,116.542 202.389 C 117.705 196.573,125.452 192.483,132.400 194.017 " stroke="none" fill="#1c1515" fill-rule="evenodd"></path><path id="path3" d="M86.586 1.978 C 86.716 2.187,85.971 2.425,84.910 2.512 C 83.859 2.599,85.145 2.654,87.767 2.635 C 91.201 2.610,92.581 2.460,92.701 2.100 C 92.824 1.727,92.037 1.600,89.610 1.600 C 87.669 1.600,86.447 1.753,86.586 1.978 M307.299 2.100 C 307.419 2.460,308.799 2.610,312.233 2.635 C 314.855 2.654,316.141 2.599,315.090 2.512 C 314.029 2.425,313.284 2.187,313.414 1.978 C 313.553 1.753,312.331 1.600,310.390 1.600 C 307.963 1.600,307.176 1.727,307.299 2.100 M76.678 2.926 C 76.833 3.177,76.666 3.234,76.245 3.073 C 75.837 2.916,75.658 2.970,75.803 3.205 C 76.084 3.659,77.870 3.712,80.544 3.346 C 83.458 2.946,82.715 2.350,79.412 2.437 C 77.492 2.488,76.515 2.663,76.678 2.926 M317.600 2.746 C 317.600 3.122,320.469 3.600,322.732 3.600 C 324.067 3.600,324.106 3.565,323.376 3.013 C 322.532 2.374,317.600 2.146,317.600 2.746 M71.779 3.566 C 71.903 3.767,71.779 4.023,71.502 4.134 C 71.226 4.246,71.765 4.351,72.700 4.368 C 73.958 4.392,74.400 4.244,74.400 3.800 C 74.400 3.379,73.975 3.200,72.976 3.200 C 72.193 3.200,71.655 3.365,71.779 3.566 M325.733 3.800 C 325.733 4.241,326.167 4.392,327.367 4.368 C 328.265 4.351,328.774 4.246,328.498 4.134 C 328.221 4.023,328.097 3.767,328.221 3.566 C 328.345 3.365,327.837 3.200,327.090 3.200 C 326.151 3.200,325.733 3.385,325.733 3.800 M329.427 3.906 C 329.003 4.330,330.950 5.600,332.024 5.600 C 332.935 5.600,333.088 5.459,332.912 4.784 C 332.794 4.335,332.622 4.044,332.529 4.137 C 332.436 4.231,331.748 4.169,331.000 4.000 C 330.252 3.831,329.544 3.789,329.427 3.906 M67.065 4.873 C 66.793 5.912,68.793 5.847,70.026 4.777 L 70.975 3.954 69.115 4.050 C 67.704 4.123,67.209 4.322,67.065 4.873 M63.600 5.600 C 63.600 5.820,62.970 6.000,62.200 6.000 C 61.350 6.000,60.798 6.196,60.794 6.500 C 60.790 6.833,60.658 6.800,60.400 6.400 C 60.142 6.000,60.010 5.967,60.006 6.300 C 60.003 6.575,59.634 6.800,59.187 6.800 C 58.741 6.800,58.271 7.070,58.145 7.400 C 58.003 7.770,57.395 8.000,56.557 8.000 C 55.617 8.000,55.200 8.185,55.200 8.600 C 55.200 9.269,56.613 9.426,57.000 8.800 C 57.136 8.580,57.692 8.400,58.236 8.400 C 58.780 8.400,59.329 8.130,59.455 7.800 C 59.605 7.409,60.228 7.200,61.243 7.200 C 62.099 7.200,62.800 7.020,62.800 6.800 C 62.800 6.580,63.235 6.400,63.767 6.400 C 65.077 6.400,66.044 5.994,65.774 5.558 C 65.471 5.067,63.600 5.104,63.600 5.600 M334.497 5.700 C 334.588 5.975,335.233 6.256,335.931 6.325 C 336.629 6.394,337.200 6.619,337.200 6.825 C 337.200 7.031,337.901 7.200,338.757 7.200 C 339.772 7.200,340.395 7.409,340.545 7.800 C 340.671 8.130,341.220 8.400,341.764 8.400 C 342.308 8.400,342.864 8.580,343.000 8.800 C 343.387 9.426,344.800 9.269,344.800 8.600 C 344.800 8.185,344.383 8.000,343.443 8.000 C 342.605 8.000,341.997 7.770,341.855 7.400 C 341.721 7.049,341.121 6.800,340.413 6.800 C 339.746 6.800,339.200 6.620,339.200 6.400 C 339.200 6.180,338.570 6.000,337.800 6.000 C 337.030 6.000,336.400 5.820,336.400 5.600 C 336.400 5.380,335.935 5.200,335.367 5.200 C 334.719 5.200,334.395 5.387,334.497 5.700 M53.200 9.200 C 53.200 9.420,52.758 9.600,52.218 9.600 C 51.678 9.600,50.786 10.050,50.236 10.600 C 49.608 11.229,48.784 11.600,48.018 11.600 C 47.238 11.600,46.800 11.802,46.800 12.163 C 46.800 12.517,46.521 12.652,46.045 12.528 C 45.630 12.419,45.171 12.524,45.024 12.761 C 44.860 13.026,44.996 13.100,45.379 12.953 C 45.721 12.822,46.000 12.914,46.000 13.157 C 46.000 13.401,45.550 13.600,45.000 13.600 C 44.450 13.600,44.000 13.780,44.000 14.000 C 44.000 14.220,43.651 14.400,43.224 14.400 C 42.797 14.400,42.336 14.580,42.200 14.800 C 42.064 15.020,41.584 15.200,41.134 15.200 C 40.570 15.200,40.386 15.387,40.545 15.800 C 40.701 16.208,40.523 16.400,39.987 16.400 C 39.174 16.400,38.923 16.981,39.565 17.378 C 39.973 17.631,42.394 16.368,42.397 15.900 C 42.399 15.735,42.670 15.600,43.000 15.600 C 43.330 15.600,43.600 15.420,43.600 15.200 C 43.600 14.980,43.960 14.800,44.400 14.800 C 44.840 14.800,45.201 14.665,45.203 14.500 C 45.206 14.098,47.519 12.800,48.232 12.800 C 48.545 12.800,48.800 12.620,48.800 12.400 C 48.800 12.180,49.074 12.000,49.408 12.000 C 49.742 12.000,50.729 11.550,51.600 11.000 C 52.471 10.450,53.548 10.000,53.992 10.000 C 54.444 10.000,54.800 9.735,54.800 9.400 C 54.800 9.067,54.444 8.800,54.000 8.800 C 53.560 8.800,53.200 8.980,53.200 9.200 M345.200 9.400 C 345.200 9.735,345.556 10.000,346.008 10.000 C 346.452 10.000,347.529 10.450,348.400 11.000 C 349.271 11.550,350.258 12.000,350.592 12.000 C 350.926 12.000,351.200 12.180,351.200 12.400 C 351.200 12.620,351.455 12.800,351.768 12.800 C 352.481 12.800,354.794 14.098,354.797 14.500 C 354.799 14.665,355.160 14.800,355.600 14.800 C 356.040 14.800,356.400 14.980,356.400 15.200 C 356.400 15.420,356.592 15.600,356.827 15.600 C 357.061 15.600,357.876 16.075,358.638 16.656 C 359.399 17.236,360.136 17.598,360.275 17.458 C 360.414 17.319,360.790 17.579,361.111 18.037 C 361.431 18.494,362.186 19.168,362.788 19.534 C 366.316 21.680,377.873 33.033,380.055 36.497 C 380.341 36.951,381.200 36.560,381.200 35.976 C 381.200 35.769,381.007 35.600,380.771 35.600 C 380.087 35.600,379.200 34.525,379.200 33.696 C 379.200 33.278,378.756 32.698,378.214 32.407 C 377.671 32.117,377.322 31.727,377.437 31.540 C 377.553 31.353,377.367 31.200,377.024 31.200 C 376.681 31.200,376.400 31.007,376.400 30.771 C 376.400 30.305,375.415 29.200,375.000 29.200 C 374.666 29.200,373.600 28.134,373.600 27.800 C 373.600 27.466,372.534 26.400,372.200 26.400 C 371.866 26.400,370.800 25.334,370.800 25.000 C 370.800 24.653,369.728 23.600,369.375 23.600 C 369.022 23.600,367.201 21.507,367.200 21.100 C 367.200 20.935,366.828 20.800,366.373 20.800 C 365.918 20.800,364.952 20.170,364.226 19.400 C 363.500 18.630,362.694 18.000,362.436 18.000 C 362.178 18.000,361.580 17.640,361.108 17.200 C 360.636 16.760,359.994 16.400,359.682 16.400 C 359.342 16.400,359.207 16.160,359.345 15.800 C 359.501 15.392,359.323 15.200,358.787 15.200 C 358.354 15.200,358.000 15.020,358.000 14.800 C 358.000 14.580,357.550 14.400,357.000 14.400 C 356.450 14.400,356.000 14.220,356.000 14.000 C 356.000 13.780,355.595 13.597,355.100 13.594 C 354.389 13.589,354.323 13.510,354.789 13.215 C 355.296 12.895,355.284 12.807,354.708 12.586 C 354.340 12.445,353.850 12.446,353.619 12.588 C 353.389 12.731,353.200 12.567,353.200 12.224 C 353.200 11.795,352.818 11.600,351.982 11.600 C 351.216 11.600,350.392 11.229,349.764 10.600 C 349.214 10.050,348.322 9.600,347.782 9.600 C 347.242 9.600,346.800 9.420,346.800 9.200 C 346.800 8.980,346.440 8.800,346.000 8.800 C 345.556 8.800,345.200 9.067,345.200 9.400 M38.400 17.600 C 38.400 17.820,38.106 18.000,37.747 18.000 C 37.388 18.000,36.500 18.630,35.774 19.400 C 35.048 20.170,34.195 20.800,33.878 20.800 C 33.561 20.800,32.764 21.430,32.106 22.200 C 31.448 22.970,30.782 23.600,30.626 23.600 C 30.272 23.600,29.200 24.653,29.200 25.000 C 29.200 25.557,28.013 26.400,27.229 26.400 C 26.657 26.400,26.400 26.657,26.400 27.229 C 26.400 28.013,25.557 29.200,25.000 29.200 C 24.666 29.200,23.600 30.266,23.600 30.600 C 23.600 30.741,23.330 31.127,23.000 31.457 C 22.670 31.787,22.400 31.930,22.400 31.775 C 22.400 31.619,22.040 31.950,21.600 32.509 C 21.160 33.069,20.800 33.735,20.800 33.990 C 20.800 34.245,20.170 35.048,19.400 35.774 C 18.630 36.500,18.000 37.373,18.000 37.714 C 18.000 38.055,17.775 38.414,17.500 38.512 C 17.225 38.610,17.131 38.831,17.290 39.002 C 17.680 39.421,18.713 38.519,19.805 36.806 C 20.297 36.033,21.176 34.860,21.758 34.200 C 22.340 33.540,23.577 32.120,24.508 31.043 C 25.438 29.967,26.999 28.347,27.976 27.443 C 28.953 26.540,30.302 25.215,30.973 24.500 C 31.645 23.785,32.338 23.200,32.513 23.200 C 32.688 23.200,33.580 22.480,34.496 21.600 C 35.412 20.720,36.291 20.000,36.450 20.000 C 36.609 20.000,37.292 19.534,37.969 18.964 C 39.205 17.925,39.546 17.200,38.800 17.200 C 38.580 17.200,38.400 17.380,38.400 17.600 M380.800 37.338 C 380.800 38.065,382.330 39.409,382.702 39.009 C 382.866 38.834,382.775 38.610,382.500 38.512 C 382.225 38.414,382.000 37.988,382.000 37.567 C 382.000 37.145,381.730 36.800,381.400 36.800 C 381.070 36.800,380.800 37.042,380.800 37.338 M16.400 40.449 C 16.400 41.158,16.301 41.216,15.800 40.800 C 15.300 40.385,15.200 40.439,15.200 41.127 C 15.200 41.581,15.020 42.064,14.800 42.200 C 14.580 42.336,14.400 42.714,14.400 43.041 C 14.400 43.368,13.950 44.121,13.399 44.714 C 12.385 45.808,12.289 46.430,13.091 46.697 C 13.334 46.778,13.650 46.474,13.793 46.022 C 13.937 45.570,14.222 45.200,14.427 45.200 C 14.632 45.200,14.800 44.840,14.800 44.400 C 14.800 43.960,14.980 43.600,15.200 43.600 C 15.420 43.600,15.600 43.339,15.600 43.021 C 15.600 42.702,16.050 41.956,16.600 41.362 C 17.742 40.130,17.863 39.600,17.000 39.600 C 16.655 39.600,16.400 39.961,16.400 40.449 M382.661 39.902 C 382.369 40.374,383.928 42.092,384.389 41.807 C 385.016 41.420,384.879 40.400,384.200 40.400 C 383.870 40.400,383.600 40.220,383.600 40.000 C 383.600 39.532,382.932 39.462,382.661 39.902 M384.400 42.767 C 384.400 43.225,384.535 43.602,384.700 43.605 C 384.865 43.607,385.344 44.327,385.764 45.205 C 386.185 46.082,386.680 46.800,386.864 46.800 C 387.049 46.800,387.200 47.160,387.200 47.600 C 387.200 48.040,387.380 48.400,387.600 48.400 C 387.820 48.400,388.000 48.749,388.000 49.176 C 388.000 49.603,388.166 50.055,388.369 50.181 C 388.572 50.306,388.857 50.947,389.001 51.605 C 389.145 52.262,389.417 52.800,389.604 52.800 C 389.791 52.800,390.002 53.191,390.072 53.669 C 390.241 54.814,391.200 55.125,391.200 54.033 C 391.200 53.575,391.020 53.200,390.800 53.200 C 390.580 53.200,390.400 52.654,390.400 51.987 C 390.400 51.279,390.151 50.679,389.800 50.545 C 389.470 50.418,389.200 49.974,389.200 49.557 C 389.200 49.141,389.020 48.800,388.800 48.800 C 388.580 48.800,388.400 48.350,388.400 47.800 C 388.400 47.250,388.220 46.800,388.000 46.800 C 387.780 46.800,387.600 46.491,387.600 46.113 C 387.600 45.735,387.171 45.057,386.647 44.607 C 386.124 44.157,385.629 43.446,385.547 43.027 C 385.340 41.954,384.400 41.741,384.400 42.767 M11.698 47.800 C 11.826 48.471,11.710 48.800,11.345 48.800 C 11.045 48.800,10.800 49.141,10.800 49.557 C 10.800 49.974,10.530 50.418,10.200 50.545 C 9.846 50.681,9.600 51.281,9.600 52.011 C 9.600 52.733,9.434 53.144,9.200 53.000 C 8.972 52.859,8.800 53.207,8.800 53.810 C 8.800 55.082,9.737 54.965,9.928 53.669 C 9.998 53.191,10.223 52.800,10.428 52.800 C 10.633 52.800,10.801 52.575,10.802 52.300 C 10.803 52.025,11.253 50.914,11.802 49.832 C 12.964 47.541,13.050 46.800,12.153 46.800 C 11.679 46.800,11.558 47.067,11.698 47.800 M8.000 55.951 C 8.000 56.364,7.730 56.926,7.400 57.200 C 7.070 57.474,6.800 58.227,6.800 58.873 C 6.800 59.519,6.653 59.956,6.474 59.845 C 6.294 59.735,6.104 60.489,6.052 61.522 C 6.000 62.555,5.787 63.460,5.579 63.533 C 5.370 63.607,5.200 64.027,5.200 64.467 C 5.200 65.587,6.169 65.162,6.334 63.969 C 6.407 63.436,6.632 62.829,6.834 62.620 C 7.035 62.411,7.200 61.665,7.200 60.963 C 7.200 60.157,7.438 59.594,7.845 59.438 C 8.301 59.263,8.438 58.841,8.314 57.995 C 8.194 57.181,8.308 56.800,8.669 56.800 C 8.961 56.800,9.200 56.440,9.200 56.000 C 9.200 55.556,8.933 55.200,8.600 55.200 C 8.270 55.200,8.000 55.538,8.000 55.951 M390.800 55.813 C 390.800 56.149,391.043 56.518,391.341 56.633 C 391.658 56.754,391.809 57.219,391.706 57.757 C 391.608 58.270,391.810 58.953,392.165 59.308 C 392.514 59.657,392.800 60.460,392.800 61.091 C 392.800 61.723,392.965 62.411,393.166 62.620 C 393.368 62.829,393.593 63.436,393.666 63.969 C 393.834 65.185,394.800 65.581,394.800 64.433 C 394.800 63.975,394.620 63.600,394.400 63.600 C 394.180 63.600,394.000 62.790,394.000 61.800 C 394.000 60.810,393.820 60.000,393.600 60.000 C 393.380 60.000,393.200 59.466,393.200 58.813 C 393.200 57.896,393.056 57.680,392.570 57.867 C 392.170 58.020,391.968 57.906,392.017 57.554 C 392.210 56.171,391.956 55.200,391.400 55.200 C 391.070 55.200,390.800 55.476,390.800 55.813 M5.232 66.500 C 5.214 66.885,4.975 67.155,4.700 67.100 C 4.374 67.035,4.156 67.618,4.074 68.771 C 3.962 70.327,4.022 70.480,4.563 70.031 C 5.236 69.472,5.805 67.152,5.472 66.321 C 5.337 65.984,5.252 66.047,5.232 66.500 M394.587 67.797 C 394.694 68.675,394.965 69.455,395.191 69.530 C 395.416 69.605,395.600 70.732,395.600 72.033 C 395.600 73.870,395.734 74.400,396.200 74.400 C 396.621 74.400,396.800 73.975,396.800 72.976 C 396.800 72.129,396.638 71.653,396.400 71.800 C 396.149 71.955,396.000 71.057,396.000 69.381 C 396.000 67.228,395.889 66.757,395.426 66.935 C 395.110 67.056,394.748 66.940,394.622 66.678 C 394.496 66.415,394.480 66.919,394.587 67.797 M3.200 72.854 C 3.200 74.042,3.332 74.324,3.800 74.145 C 4.162 74.006,4.400 73.402,4.400 72.624 C 4.400 71.743,4.209 71.333,3.800 71.333 C 3.372 71.333,3.200 71.769,3.200 72.854 M2.900 76.226 C 2.299 76.875,2.227 80.000,2.813 80.000 C 3.426 80.000,3.666 79.087,3.525 77.289 C 3.423 75.982,3.308 75.786,2.900 76.226 M396.518 77.769 C 396.628 80.407,397.600 80.803,397.600 78.210 C 397.600 77.188,397.435 76.455,397.234 76.579 C 397.033 76.703,396.771 76.579,396.652 76.302 C 396.533 76.026,396.473 76.686,396.518 77.769 M2.269 82.742 C 2.399 83.241,2.306 83.600,2.047 83.600 C 1.801 83.600,1.600 83.791,1.600 84.024 C 1.600 84.257,1.773 84.340,1.984 84.210 C 2.227 84.060,2.235 84.382,2.006 85.086 C 1.439 86.830,1.315 93.200,1.849 93.200 C 2.462 93.200,3.042 82.882,2.461 82.301 C 2.173 82.013,2.114 82.148,2.269 82.742 M397.457 87.600 C 397.691 93.324,397.709 93.427,398.373 93.016 C 399.098 92.569,398.925 86.800,398.187 86.800 C 397.736 86.800,397.600 86.432,397.669 85.402 C 397.765 83.971,398.171 83.970,398.515 85.400 C 398.624 85.856,398.727 85.560,398.754 84.713 C 398.789 83.584,398.664 83.277,398.235 83.442 C 397.906 83.568,397.579 83.353,397.453 82.929 C 397.333 82.528,397.335 84.630,397.457 87.600 M307.600 102.649 C 304.487 102.951,299.317 103.673,298.000 103.990 C 297.230 104.176,295.610 104.540,294.400 104.801 C 291.780 105.365,288.116 106.370,287.000 106.830 C 286.560 107.011,285.390 107.422,284.400 107.742 C 282.521 108.350,281.341 108.813,278.504 110.057 C 277.572 110.465,276.712 110.800,276.595 110.800 C 275.844 110.800,270.933 114.380,269.511 115.964 C 264.496 121.550,263.288 130.250,266.646 136.600 C 267.896 138.965,269.244 141.345,269.589 141.800 C 269.756 142.020,270.367 143.055,270.946 144.100 C 273.073 147.935,274.173 149.864,275.867 152.733 C 276.820 154.346,277.600 155.750,277.600 155.852 C 277.600 155.955,278.230 157.023,279.000 158.227 C 279.770 159.431,280.400 160.506,280.400 160.616 C 280.400 160.726,280.863 161.549,281.429 162.446 C 282.744 164.530,282.566 164.653,279.703 163.637 C 270.248 160.280,259.492 165.537,255.801 175.319 L 255.077 177.238 253.838 176.095 C 247.941 170.655,239.231 167.470,230.200 167.451 C 225.974 167.443,220.615 168.174,219.820 168.868 C 219.329 169.297,217.073 169.298,216.580 168.870 C 214.932 167.436,205.310 166.810,202.400 167.947 C 199.663 169.016,198.582 169.566,197.200 170.596 L 195.800 171.638 195.543 167.919 C 194.695 155.650,186.894 147.883,175.361 147.824 C 172.699 147.811,170.089 147.993,169.561 148.229 C 162.204 151.515,158.497 155.097,155.930 161.400 C 155.642 162.108,155.351 165.599,155.221 169.917 L 155.000 177.234 153.200 175.930 C 152.210 175.212,151.303 174.490,151.184 174.325 C 150.898 173.927,144.580 170.687,142.800 170.025 C 137.747 168.146,124.338 167.414,119.827 168.770 C 119.152 168.973,117.610 169.357,116.400 169.625 C 115.190 169.892,113.311 170.536,112.225 171.056 C 111.139 171.575,110.059 172.008,109.825 172.018 C 109.591 172.028,108.068 172.909,106.439 173.975 L 103.478 175.913 101.266 173.719 C 100.049 172.512,98.682 171.359,98.227 171.157 C 97.772 170.955,96.860 170.469,96.200 170.077 C 93.203 168.296,83.908 167.401,81.160 168.629 C 73.481 172.061,69.343 176.366,67.400 182.945 C 66.689 185.353,66.380 185.133,64.225 180.680 C 61.259 174.552,58.253 171.763,51.240 168.629 C 49.830 167.999,40.906 168.082,39.200 168.740 C 28.399 172.909,22.793 183.134,25.571 193.600 C 25.834 194.590,27.280 197.920,28.784 201.000 C 30.288 204.080,33.623 210.920,36.196 216.200 C 47.242 238.870,46.665 237.600,45.915 237.600 C 44.971 237.600,40.449 240.892,38.952 242.668 C 29.118 254.340,33.940 270.326,48.800 275.317 C 53.219 276.801,67.094 276.401,68.980 274.736 C 69.189 274.551,69.595 274.400,69.882 274.400 C 70.365 274.400,72.729 273.317,75.251 271.939 C 77.089 270.936,80.797 267.512,82.311 265.421 C 83.115 264.309,83.896 263.310,84.045 263.200 C 84.654 262.750,87.100 257.166,88.162 253.800 C 88.787 251.820,89.437 249.840,89.607 249.400 C 89.777 248.960,90.401 246.980,90.995 245.000 C 91.589 243.020,92.290 240.740,92.552 239.933 L 93.029 238.466 94.192 240.733 C 99.090 250.283,107.682 256.675,118.726 258.987 C 125.319 260.368,139.096 259.343,143.295 257.161 C 143.677 256.962,144.167 256.800,144.384 256.800 C 145.817 256.800,152.927 252.678,155.200 250.530 C 156.905 248.919,157.306 248.888,158.220 250.300 C 164.337 259.749,179.005 262.542,186.831 255.748 C 187.856 254.859,188.000 255.078,188.000 257.527 C 188.000 260.217,188.696 264.425,189.232 264.980 C 189.435 265.189,189.600 265.688,189.600 266.090 C 189.600 266.491,190.330 267.976,191.223 269.389 C 199.271 282.133,217.589 282.183,225.496 269.483 C 227.017 267.038,227.425 265.960,228.474 261.600 L 229.003 259.400 230.801 259.301 C 237.156 258.953,246.686 256.310,248.400 254.419 C 248.510 254.298,249.135 253.929,249.788 253.599 C 251.213 252.881,257.100 247.170,258.445 245.202 C 260.520 242.164,262.027 239.187,263.609 235.000 C 264.727 232.043,265.894 226.294,266.220 222.134 L 266.477 218.869 271.580 218.869 L 276.683 218.869 275.011 221.362 C 270.061 228.743,271.116 239.427,277.354 245.104 C 280.380 247.857,290.970 254.000,292.692 254.000 C 292.977 254.000,293.523 254.174,293.905 254.387 C 294.822 254.899,297.670 255.779,300.400 256.394 C 301.610 256.667,303.013 257.050,303.519 257.245 C 305.023 257.826,311.611 257.654,313.537 256.983 C 320.795 254.456,325.045 249.609,326.794 241.868 C 327.200 240.071,327.548 238.818,327.566 239.085 C 327.799 242.440,338.059 248.400,343.600 248.400 C 356.924 248.400,376.491 224.360,373.835 211.254 C 372.873 206.504,368.343 199.200,366.361 199.200 C 366.194 199.200,365.819 198.968,365.529 198.684 C 365.238 198.400,364.159 197.775,363.131 197.296 C 361.058 196.330,360.356 195.600,361.502 195.600 C 363.558 195.600,371.600 189.799,371.600 188.316 C 371.600 188.100,371.928 187.446,372.328 186.862 C 375.156 182.741,375.395 172.449,372.734 169.420 C 372.550 169.211,372.400 168.716,372.400 168.320 C 372.400 167.924,372.220 167.600,372.000 167.600 C 371.780 167.600,371.600 167.360,371.600 167.066 C 371.600 164.613,362.618 152.932,357.061 148.158 C 349.444 141.615,338.712 142.060,331.556 149.216 L 328.800 151.972 328.800 136.732 C 328.800 122.562,328.533 117.791,327.605 115.400 C 324.296 106.870,316.342 101.800,307.600 102.649 M313.280 103.642 C 316.696 104.354,320.138 106.205,322.530 108.616 C 324.476 110.578,325.325 111.944,327.244 116.200 C 327.666 117.137,327.811 121.338,327.907 135.382 C 328.040 154.858,328.001 154.449,329.525 152.400 C 335.104 144.896,344.872 142.177,352.600 145.977 C 359.397 149.319,369.541 162.086,372.984 171.631 C 376.570 181.573,370.350 193.219,360.300 195.379 C 359.695 195.509,359.200 195.796,359.200 196.016 C 359.200 196.237,359.695 196.608,360.300 196.840 C 376.350 203.016,377.673 217.540,363.747 234.677 C 353.557 247.218,344.136 250.491,334.206 244.941 C 332.279 243.864,328.216 239.709,327.796 238.388 C 327.282 236.768,326.599 237.907,326.138 241.155 C 324.687 251.363,314.337 259.131,305.246 256.835 C 304.451 256.634,302.810 256.259,301.600 256.002 C 299.282 255.510,295.946 254.564,294.600 254.018 C 294.160 253.840,292.605 253.211,291.145 252.621 C 289.684 252.031,287.088 250.750,285.376 249.774 C 283.664 248.798,282.114 248.000,281.932 248.000 C 281.749 248.000,281.600 247.832,281.600 247.627 C 281.600 247.422,281.222 247.134,280.761 246.988 C 278.252 246.191,274.076 240.396,272.981 236.191 C 271.491 230.472,273.610 222.346,277.414 219.188 C 278.553 218.243,278.136 217.463,276.700 217.850 C 275.985 218.043,273.330 218.193,270.800 218.185 C 265.558 218.167,265.615 218.133,265.606 221.323 C 265.603 222.600,265.434 224.400,265.232 225.323 C 265.030 226.245,264.650 228.080,264.388 229.400 C 261.938 241.752,253.902 252.162,244.000 255.811 C 243.010 256.176,241.840 256.637,241.400 256.835 C 239.801 257.555,234.680 258.400,231.874 258.406 C 228.278 258.414,228.109 258.530,227.795 261.208 C 225.908 277.274,206.073 284.122,194.659 272.648 C 190.724 268.692,189.270 265.163,188.916 258.700 C 188.649 253.825,188.542 253.713,185.954 255.587 C 178.067 261.301,165.681 259.148,159.703 251.025 C 157.353 247.830,157.296 247.810,155.417 249.539 C 149.955 254.567,143.393 257.263,132.923 258.782 C 116.721 261.134,101.344 253.626,94.663 240.100 C 92.936 236.604,92.659 236.825,90.786 243.200 C 90.301 244.850,89.475 247.550,88.951 249.200 C 88.428 250.850,87.714 253.100,87.366 254.200 C 82.927 268.214,72.986 275.546,58.200 275.710 C 45.955 275.846,37.579 270.352,35.029 260.514 C 32.903 252.308,36.937 243.300,44.676 238.972 C 46.064 238.196,47.200 237.496,47.200 237.418 C 47.200 237.278,43.474 229.595,33.614 209.400 C 25.932 193.665,26.088 194.050,25.763 190.067 C 23.886 167.098,53.522 160.293,63.843 181.323 C 66.280 186.289,67.130 186.929,67.692 184.221 C 70.269 171.819,85.092 164.756,96.000 170.731 C 98.620 172.167,99.184 172.589,101.417 174.790 L 103.434 176.777 105.353 175.413 C 118.796 165.856,140.852 166.515,153.243 176.843 C 155.634 178.836,155.599 178.912,155.605 171.633 C 155.608 167.458,155.802 164.674,156.193 163.200 C 162.065 141.056,193.569 144.582,194.698 167.510 C 194.943 172.481,195.098 172.806,196.703 171.682 C 202.283 167.776,212.281 166.457,215.786 169.165 C 216.759 169.916,218.352 169.918,221.182 169.172 C 231.723 166.391,244.362 169.078,252.562 175.841 L 255.163 177.987 255.782 177.105 C 256.122 176.619,256.400 176.055,256.400 175.851 C 256.400 173.452,261.895 166.874,265.238 165.270 C 270.639 162.679,275.239 162.565,281.114 164.874 C 283.601 165.851,284.057 165.615,283.041 163.874 C 282.632 163.173,281.845 161.790,281.291 160.800 C 280.738 159.810,279.951 158.522,279.543 157.938 C 279.134 157.354,278.800 156.789,278.800 156.682 C 278.800 156.575,277.360 154.029,275.600 151.025 C 273.840 148.020,272.400 145.476,272.400 145.373 C 272.400 145.269,271.926 144.433,271.347 143.516 C 264.124 132.074,263.511 125.077,269.069 117.506 C 274.617 109.949,302.138 101.318,313.280 103.642 M302.400 116.233 C 289.658 118.830,280.179 122.474,278.423 125.450 C 276.968 127.918,277.285 129.425,280.400 134.828 C 281.940 137.500,283.200 139.753,283.200 139.835 C 283.200 139.917,283.830 140.969,284.600 142.173 C 285.370 143.377,286.000 144.445,286.000 144.548 C 286.000 144.650,286.834 146.144,287.854 147.867 C 289.445 150.557,293.529 157.599,298.716 166.600 C 299.476 167.920,300.552 169.810,301.107 170.800 C 301.661 171.790,302.449 173.078,302.857 173.662 C 303.266 174.246,303.600 174.835,303.600 174.970 C 303.600 175.709,305.912 178.541,306.956 179.081 C 309.453 180.372,312.864 179.559,314.600 177.260 C 315.696 175.808,316.080 120.888,315.008 118.816 C 313.370 115.647,309.333 114.820,302.400 116.233 M311.985 116.592 C 315.002 118.152,314.800 115.926,314.800 147.694 L 314.800 176.080 313.472 177.408 C 311.632 179.248,309.577 179.598,307.400 178.444 C 305.787 177.588,305.596 177.327,302.097 171.200 C 301.658 170.430,300.624 168.630,299.800 167.200 C 298.201 164.426,296.549 161.508,295.836 160.200 C 295.596 159.760,295.310 159.310,295.200 159.200 C 295.090 159.090,294.807 158.640,294.571 158.200 C 293.367 155.957,292.580 154.580,292.400 154.400 C 292.290 154.290,292.004 153.840,291.764 153.400 C 290.165 150.465,289.074 148.545,288.812 148.200 C 288.644 147.980,288.058 146.990,287.510 146.000 C 285.446 142.274,283.577 139.012,280.634 134.000 C 276.421 126.827,277.500 124.658,287.000 121.202 C 287.440 121.042,288.481 120.616,289.314 120.255 C 290.146 119.895,291.093 119.600,291.419 119.600 C 291.745 119.600,292.323 119.436,292.705 119.236 C 293.460 118.841,297.473 117.919,301.600 117.193 C 303.030 116.941,304.920 116.591,305.800 116.416 C 308.412 115.894,310.765 115.961,311.985 116.592 M341.720 157.258 C 340.975 157.719,339.130 160.006,337.309 162.725 C 335.587 165.296,331.936 170.730,329.194 174.800 C 322.013 185.463,321.705 186.642,325.262 189.845 C 327.598 191.948,328.755 191.874,338.400 189.000 C 339.610 188.639,341.185 188.177,341.900 187.972 C 342.615 187.768,343.785 187.432,344.500 187.227 C 345.215 187.022,346.250 186.735,346.800 186.589 C 347.350 186.444,348.610 186.094,349.600 185.811 C 350.590 185.529,352.210 185.070,353.200 184.791 C 359.040 183.147,360.097 182.563,361.223 180.355 C 362.828 177.208,360.097 170.590,354.400 163.823 C 348.380 156.673,345.269 155.062,341.720 157.258 M347.472 157.863 C 348.792 158.487,353.060 162.944,355.292 166.028 C 355.998 167.003,356.670 167.890,356.787 168.000 C 356.904 168.110,357.226 168.603,357.501 169.096 C 362.804 178.581,362.277 181.629,355.000 183.565 C 353.220 184.038,349.538 185.104,348.000 185.591 C 347.450 185.765,346.280 186.096,345.400 186.326 C 341.116 187.446,336.579 188.762,335.400 189.225 C 334.960 189.398,334.150 189.631,333.600 189.742 C 333.050 189.854,331.805 190.145,330.833 190.389 C 327.191 191.306,324.376 189.430,324.104 185.905 L 323.941 183.800 328.598 176.800 C 331.159 172.950,333.513 169.440,333.828 169.000 C 335.280 166.974,339.200 161.098,339.200 160.947 C 339.200 160.855,339.785 160.136,340.500 159.350 C 342.779 156.845,344.529 156.472,347.472 157.863 M270.138 176.746 C 267.397 178.731,265.600 186.079,265.600 195.297 C 265.600 202.943,266.381 204.786,270.134 205.992 C 271.689 206.491,271.707 206.489,276.800 205.193 C 277.570 204.997,280.180 204.363,282.600 203.784 C 285.020 203.205,287.540 202.570,288.200 202.372 C 288.860 202.175,291.740 201.448,294.600 200.758 C 302.730 198.794,304.800 197.362,304.800 193.700 C 304.800 189.849,303.670 189.139,278.138 176.965 C 274.440 175.201,272.350 175.144,270.138 176.746 M282.893 179.969 C 286.946 181.966,290.473 183.600,290.731 183.600 C 290.989 183.600,291.200 183.780,291.200 184.000 C 291.200 184.220,291.381 184.400,291.602 184.400 C 292.510 184.400,301.980 189.327,302.848 190.251 C 303.620 191.073,303.787 191.681,303.787 193.677 C 303.787 197.249,302.538 198.215,295.940 199.747 C 293.223 200.378,290.415 201.053,289.700 201.247 C 288.985 201.441,287.815 201.760,287.100 201.956 C 286.385 202.152,284.450 202.625,282.800 203.006 C 281.150 203.388,279.440 203.845,279.000 204.023 C 278.560 204.200,277.660 204.436,277.000 204.547 C 276.340 204.658,274.900 204.947,273.800 205.190 C 267.377 206.610,264.507 200.615,266.417 189.767 C 269.137 174.319,270.175 173.701,282.893 179.969 M324.841 201.559 C 322.123 204.277,322.197 206.360,325.183 211.156 C 340.336 235.505,340.097 235.196,343.763 235.199 C 350.120 235.203,363.465 216.842,360.700 211.895 C 359.440 209.640,358.538 209.055,354.400 207.807 C 353.190 207.442,351.840 206.996,351.400 206.817 C 350.960 206.638,347.900 205.629,344.600 204.576 C 341.300 203.522,336.800 202.063,334.600 201.333 C 328.944 199.456,326.896 199.504,324.841 201.559 M331.172 200.849 C 331.957 201.096,332.870 201.421,333.200 201.572 C 333.530 201.722,335.420 202.352,337.400 202.972 C 339.380 203.591,341.360 204.240,341.800 204.413 C 342.240 204.586,346.067 205.850,350.304 207.222 C 362.840 211.281,363.374 212.937,355.725 223.999 C 346.991 236.629,342.272 237.629,336.526 228.070 C 335.247 225.941,334.065 224.140,333.900 224.067 C 333.735 223.993,333.600 223.756,333.600 223.540 C 333.600 223.324,333.150 222.557,332.600 221.836 C 332.050 221.114,331.600 220.383,331.600 220.210 C 331.600 220.037,330.970 219.019,330.200 217.947 C 329.430 216.875,328.800 215.914,328.800 215.812 C 328.800 215.709,328.011 214.404,327.047 212.912 C 324.211 208.522,323.600 207.256,323.600 205.768 C 323.600 201.810,327.066 199.558,331.172 200.849 M306.581 205.561 C 306.131 205.755,304.421 207.419,302.781 209.257 C 301.141 211.096,299.710 212.690,299.600 212.800 C 299.490 212.910,297.781 214.800,295.802 217.000 C 293.824 219.200,291.366 221.900,290.340 223.000 C 281.378 232.614,283.187 236.964,298.400 242.382 C 299.170 242.656,300.160 243.023,300.600 243.196 C 309.269 246.616,313.632 244.688,314.172 237.200 C 314.594 231.361,315.150 210.719,314.919 209.508 C 314.316 206.356,309.749 204.194,306.581 205.561 M310.341 205.848 C 314.300 206.640,314.639 208.132,314.061 222.200 C 313.799 228.580,313.588 235.167,313.592 236.839 C 313.611 244.306,309.799 245.671,299.200 241.992 C 296.206 240.952,291.668 238.788,290.013 237.609 C 289.388 237.164,288.713 236.800,288.513 236.800 C 286.086 236.800,284.460 230.617,286.339 228.535 C 286.704 228.131,288.172 226.450,289.601 224.801 C 291.031 223.151,292.482 221.531,292.828 221.201 C 293.173 220.870,294.418 219.520,295.596 218.200 C 298.459 214.989,303.545 209.359,304.866 207.936 C 306.729 205.930,308.112 205.402,310.341 205.848 M1.522 310.300 C 1.589 312.225,1.807 314.301,2.006 314.914 C 2.235 315.618,2.227 315.940,1.984 315.790 C 1.396 315.427,1.551 316.106,2.260 317.000 C 2.847 317.740,2.876 317.499,2.649 313.800 C 2.514 311.600,2.403 309.125,2.402 308.300 C 2.401 307.368,2.211 306.800,1.900 306.800 C 1.529 306.800,1.431 307.702,1.522 310.300 M397.400 312.003 C 397.240 314.884,397.219 317.352,397.354 317.488 C 397.489 317.623,397.600 317.414,397.600 317.024 C 397.600 316.558,397.806 316.393,398.200 316.545 C 398.672 316.726,398.788 316.458,398.746 315.287 C 398.711 314.346,398.627 314.133,398.517 314.706 C 398.313 315.767,397.600 315.510,397.600 314.376 C 397.600 313.944,397.873 313.600,398.216 313.600 C 398.981 313.600,398.913 307.168,398.146 306.914 C 397.831 306.810,397.601 308.380,397.400 312.003 M396.900 319.656 C 396.625 319.934,396.400 321.125,396.400 322.309 C 396.400 324.251,396.460 324.398,397.021 323.836 C 397.459 323.398,397.607 322.615,397.521 321.184 C 397.424 319.557,397.301 319.253,396.900 319.656 M2.400 321.790 C 2.400 322.825,2.564 323.546,2.770 323.419 C 2.973 323.293,3.228 323.507,3.336 323.895 C 3.444 324.283,3.502 323.624,3.466 322.431 C 3.381 319.637,2.400 319.047,2.400 321.790 M3.200 326.957 C 3.200 327.795,3.430 328.403,3.800 328.545 C 4.271 328.725,4.400 328.434,4.400 327.187 C 4.400 326.043,4.233 325.600,3.800 325.600 C 3.385 325.600,3.200 326.017,3.200 326.957 M395.600 327.967 C 395.600 329.268,395.442 330.393,395.249 330.467 C 394.465 330.764,394.304 333.143,395.075 333.032 C 395.660 332.947,395.823 332.490,395.920 330.663 C 395.986 329.419,396.211 328.400,396.420 328.400 C 396.629 328.400,396.800 327.770,396.800 327.000 C 396.800 326.022,396.619 325.600,396.200 325.600 C 395.734 325.600,395.600 326.130,395.600 327.967 M4.076 331.503 C 4.144 332.327,4.373 332.942,4.584 332.870 C 4.796 332.799,5.098 333.069,5.256 333.470 C 5.628 334.414,5.710 332.649,5.355 331.328 C 4.917 329.692,3.937 329.827,4.076 331.503 M394.100 334.455 C 393.825 334.733,393.600 335.554,393.600 336.280 C 393.600 337.006,393.420 337.600,393.200 337.600 C 392.980 337.600,392.794 338.095,392.787 338.700 C 392.780 339.305,392.510 340.149,392.187 340.576 C 391.378 341.647,391.452 342.229,392.400 342.229 C 393.160 342.229,393.445 341.359,393.230 339.700 C 393.194 339.425,393.353 339.200,393.582 339.200 C 393.812 339.200,394.000 338.585,394.000 337.833 C 394.000 337.082,394.196 336.401,394.435 336.322 C 394.674 336.242,394.809 335.675,394.735 335.063 C 394.627 334.169,394.501 334.049,394.100 334.455 M5.200 335.567 C 5.200 336.025,5.380 336.400,5.600 336.400 C 5.820 336.400,6.000 337.120,6.000 338.000 C 6.000 338.880,6.180 339.600,6.400 339.600 C 6.620 339.600,6.800 340.224,6.800 340.987 C 6.800 342.086,6.931 342.325,7.430 342.133 C 7.830 341.980,8.032 342.094,7.983 342.446 C 7.790 343.829,8.044 344.800,8.600 344.800 C 9.347 344.800,9.395 343.650,8.659 343.367 C 8.345 343.247,8.191 342.781,8.291 342.256 C 8.391 341.737,8.194 341.127,7.832 340.827 C 7.484 340.538,7.200 339.730,7.200 339.031 C 7.200 338.332,7.035 337.589,6.834 337.380 C 6.632 337.171,6.407 336.564,6.334 336.031 C 6.166 334.815,5.200 334.419,5.200 335.567 M391.500 343.232 C 390.667 343.717,390.566 344.800,391.353 344.800 C 391.658 344.800,391.993 344.350,392.098 343.800 C 392.203 343.250,392.269 342.805,392.245 342.812 C 392.220 342.819,391.885 343.008,391.500 343.232 M8.806 346.513 C 8.811 347.491,8.905 347.656,9.200 347.200 C 9.497 346.740,9.589 346.882,9.594 347.811 C 9.598 348.530,9.932 349.307,10.417 349.722 C 10.866 350.107,11.126 350.597,10.993 350.811 C 10.861 351.025,11.008 351.200,11.321 351.200 C 11.711 351.200,11.829 351.513,11.698 352.200 C 11.558 352.933,11.679 353.200,12.153 353.200 C 13.110 353.200,12.954 352.407,11.400 349.372 C 10.630 347.868,10.000 346.424,10.000 346.162 C 10.000 345.900,9.730 345.582,9.400 345.455 C 8.943 345.280,8.801 345.531,8.806 346.513 M390.267 345.467 C 390.120 345.613,390.000 346.048,390.000 346.433 C 390.000 346.818,389.825 347.193,389.612 347.267 C 388.941 347.497,388.930 349.400,389.600 349.400 C 389.985 349.400,390.245 348.933,390.325 348.100 C 390.394 347.385,390.619 346.800,390.825 346.800 C 391.031 346.800,391.200 346.440,391.200 346.000 C 391.200 345.203,390.774 344.960,390.267 345.467 M388.267 349.867 C 388.120 350.013,388.000 350.463,388.000 350.867 C 388.000 351.270,387.820 351.600,387.600 351.600 C 387.380 351.600,387.200 351.883,387.200 352.229 C 387.200 352.574,386.975 353.108,386.700 353.415 C 385.473 354.783,385.200 355.200,385.200 355.708 C 385.200 356.005,384.840 356.636,384.400 357.108 C 383.511 358.063,383.361 358.800,384.056 358.800 C 384.613 358.800,385.570 357.595,385.587 356.871 C 385.594 356.581,385.862 356.081,386.183 355.760 C 386.504 355.439,386.655 354.887,386.519 354.534 C 386.352 354.098,386.452 353.951,386.829 354.076 C 387.394 354.265,388.400 352.778,388.400 351.754 C 388.400 351.449,388.580 351.200,388.800 351.200 C 389.020 351.200,389.200 350.840,389.200 350.400 C 389.200 349.603,388.774 349.360,388.267 349.867 M12.667 353.467 C 12.181 353.953,12.390 354.379,13.000 354.145 C 13.439 353.976,13.600 354.195,13.600 354.957 C 13.600 355.531,13.780 356.000,14.000 356.000 C 14.220 356.000,14.400 356.450,14.400 357.000 C 14.400 357.550,14.580 358.000,14.800 358.000 C 15.020 358.000,15.200 358.259,15.200 358.576 C 15.200 358.893,15.408 359.281,15.662 359.438 C 15.948 359.615,16.015 359.548,15.838 359.262 C 15.681 359.008,15.743 358.800,15.976 358.800 C 16.209 358.800,16.400 359.210,16.400 359.712 C 16.400 360.213,16.760 360.883,17.200 361.200 C 17.640 361.517,18.000 362.010,18.000 362.295 C 18.000 362.581,18.630 363.426,19.400 364.174 C 20.170 364.921,20.800 365.908,20.800 366.367 C 20.800 366.825,20.935 367.200,21.100 367.200 C 21.507 367.201,23.600 369.022,23.600 369.375 C 23.600 369.728,24.653 370.800,25.000 370.800 C 25.334 370.800,26.400 371.866,26.400 372.200 C 26.400 372.534,27.466 373.600,27.800 373.600 C 28.134 373.600,29.200 374.666,29.200 375.000 C 29.200 375.347,30.272 376.400,30.625 376.400 C 30.978 376.400,32.799 378.493,32.800 378.900 C 32.800 379.065,33.172 379.200,33.627 379.200 C 34.082 379.200,35.048 379.830,35.774 380.600 C 36.500 381.370,37.373 382.000,37.714 382.000 C 38.055 382.000,38.414 382.225,38.512 382.500 C 38.610 382.775,38.838 382.862,39.018 382.694 C 39.388 382.348,36.884 379.600,36.197 379.600 C 35.428 379.600,23.200 368.162,23.200 367.442 C 23.200 367.288,22.783 366.765,22.272 366.281 C 21.762 365.796,20.765 364.548,20.057 363.506 C 19.349 362.464,18.423 361.427,18.000 361.200 C 17.576 360.973,17.321 360.549,17.433 360.258 C 17.545 359.967,17.358 359.497,17.018 359.215 C 16.678 358.933,16.400 358.454,16.400 358.151 C 16.400 357.848,16.220 357.600,16.000 357.600 C 15.780 357.600,15.600 357.330,15.600 357.000 C 15.600 356.670,15.420 356.400,15.200 356.400 C 14.980 356.400,14.800 356.040,14.800 355.600 C 14.800 355.160,14.632 354.800,14.427 354.800 C 14.222 354.800,13.940 354.440,13.800 354.000 C 13.540 353.181,13.140 352.993,12.667 353.467 M382.246 360.186 C 381.891 360.728,381.600 361.343,381.600 361.553 C 381.600 361.762,381.454 361.993,381.275 362.067 C 381.096 362.140,380.195 363.229,379.272 364.487 C 378.349 365.744,376.876 367.507,375.997 368.403 C 375.119 369.299,374.400 370.128,374.400 370.245 C 374.400 370.544,373.310 371.600,373.000 371.600 C 372.859 371.600,372.486 371.857,372.171 372.171 C 371.857 372.486,371.600 372.859,371.600 373.000 C 371.600 373.322,370.539 374.400,370.222 374.400 C 370.092 374.400,369.398 374.985,368.679 375.700 C 366.667 377.700,361.611 381.600,361.029 381.600 C 360.884 381.600,360.280 382.050,359.687 382.600 C 359.093 383.150,358.381 383.600,358.104 383.600 C 357.827 383.600,357.600 383.780,357.600 384.000 C 357.600 384.220,357.330 384.400,357.000 384.400 C 356.670 384.400,356.400 384.580,356.400 384.800 C 356.400 385.020,356.118 385.200,355.773 385.200 C 355.429 385.200,354.557 385.650,353.836 386.200 C 353.114 386.750,352.226 387.200,351.862 387.200 C 351.498 387.200,351.200 387.340,351.200 387.512 C 351.200 387.684,350.300 388.173,349.200 388.600 C 348.100 389.027,347.200 389.516,347.200 389.688 C 347.200 389.860,346.750 390.000,346.200 390.000 C 345.578 390.000,345.200 390.227,345.200 390.600 C 345.200 390.933,345.556 391.200,346.000 391.200 C 346.440 391.200,346.800 391.020,346.800 390.800 C 346.800 390.580,347.173 390.400,347.629 390.400 C 348.084 390.400,348.708 390.175,349.015 389.900 C 350.484 388.583,350.857 388.400,352.083 388.394 C 353.081 388.389,353.254 388.294,352.800 388.000 C 352.315 387.686,352.372 387.611,353.100 387.606 C 353.631 387.603,354.000 387.354,354.000 387.000 C 354.000 386.627,354.378 386.400,355.000 386.400 C 355.550 386.400,356.000 386.220,356.000 386.000 C 356.000 385.780,356.249 385.600,356.554 385.600 C 357.522 385.600,359.069 384.606,358.898 384.093 C 358.806 383.818,359.068 383.600,359.491 383.600 C 359.908 383.600,360.636 383.240,361.108 382.800 C 361.580 382.360,362.221 382.000,362.532 382.000 C 362.844 382.000,363.636 381.370,364.294 380.600 C 364.969 379.810,365.862 379.200,366.345 379.200 C 366.815 379.200,367.200 379.065,367.200 378.900 C 367.201 378.493,369.022 376.400,369.375 376.400 C 369.728 376.400,370.800 375.347,370.800 375.000 C 370.800 374.666,371.866 373.600,372.200 373.600 C 372.534 373.600,373.600 372.534,373.600 372.200 C 373.600 371.866,374.666 370.800,375.000 370.800 C 375.347 370.800,376.400 369.728,376.400 369.375 C 376.400 369.022,378.493 367.201,378.900 367.200 C 379.065 367.200,379.200 366.827,379.200 366.371 C 379.200 365.570,380.047 364.400,380.627 364.400 C 381.041 364.400,381.972 363.087,381.987 362.483 C 381.994 362.199,382.360 361.580,382.800 361.108 C 383.627 360.220,383.866 359.200,383.246 359.200 C 383.051 359.200,382.601 359.644,382.246 360.186 M39.467 382.667 C 38.923 383.211,39.229 383.600,40.200 383.600 C 40.750 383.600,41.200 383.805,41.200 384.056 C 41.200 384.613,42.405 385.570,43.129 385.587 C 43.419 385.594,43.919 385.862,44.240 386.183 C 44.561 386.504,45.088 386.664,45.412 386.540 C 45.735 386.416,46.000 386.527,46.000 386.786 C 46.000 387.615,47.108 388.400,48.276 388.400 C 49.019 388.400,49.669 388.745,50.161 389.400 C 50.656 390.059,51.303 390.400,52.056 390.400 C 52.685 390.400,53.200 390.580,53.200 390.800 C 53.200 391.020,53.560 391.200,54.000 391.200 C 54.444 391.200,54.800 390.933,54.800 390.600 C 54.800 390.232,54.426 390.000,53.833 390.000 C 53.302 390.000,52.807 389.865,52.733 389.700 C 52.540 389.265,50.035 388.000,49.368 388.000 C 49.055 388.000,48.800 387.820,48.800 387.600 C 48.800 387.380,48.502 387.200,48.138 387.200 C 47.774 387.200,46.886 386.750,46.164 386.200 C 45.443 385.650,44.571 385.200,44.227 385.200 C 43.882 385.200,43.600 385.020,43.600 384.800 C 43.600 384.580,43.330 384.400,43.000 384.400 C 42.670 384.400,42.400 384.220,42.400 384.000 C 42.400 383.780,42.152 383.600,41.849 383.600 C 41.546 383.600,41.074 383.330,40.800 383.000 C 40.258 382.347,39.881 382.253,39.467 382.667 M55.200 391.400 C 55.200 391.805,55.605 392.000,56.449 392.000 C 57.514 392.000,57.625 391.912,57.200 391.400 C 56.926 391.070,56.364 390.800,55.951 390.800 C 55.538 390.800,55.200 391.070,55.200 391.400 M342.800 391.400 C 342.375 391.912,342.486 392.000,343.551 392.000 C 344.395 392.000,344.800 391.805,344.800 391.400 C 344.800 391.070,344.462 390.800,344.049 390.800 C 343.636 390.800,343.074 391.070,342.800 391.400 M58.000 392.400 C 58.000 393.050,58.267 393.200,59.424 393.200 C 60.271 393.200,60.747 393.362,60.600 393.600 C 60.449 393.844,61.063 394.000,62.176 394.000 C 63.179 394.000,64.000 394.180,64.000 394.400 C 64.000 394.620,64.465 394.800,65.033 394.800 C 66.636 394.800,65.970 393.820,64.269 393.676 C 63.461 393.608,62.800 393.383,62.800 393.176 C 62.800 392.969,62.247 392.800,61.571 392.800 C 60.896 392.800,60.073 392.530,59.743 392.200 C 58.896 391.353,58.000 391.455,58.000 392.400 M340.257 392.200 C 339.927 392.530,339.104 392.800,338.429 392.800 C 337.753 392.800,337.200 392.969,337.200 393.176 C 337.200 393.383,336.539 393.608,335.731 393.676 C 334.030 393.820,333.364 394.800,334.967 394.800 C 335.535 394.800,336.000 394.620,336.000 394.400 C 336.000 394.180,336.720 394.000,337.600 394.000 C 338.480 394.000,339.200 393.820,339.200 393.600 C 339.200 393.380,339.830 393.200,340.600 393.200 C 341.733 393.200,342.000 393.048,342.000 392.400 C 342.000 391.455,341.104 391.353,340.257 392.200 M67.459 394.674 C 66.742 395.392,67.268 396.058,68.500 395.990 C 70.933 395.857,72.050 395.996,71.800 396.400 C 71.650 396.642,72.207 396.800,73.210 396.800 C 75.744 396.800,75.024 395.828,72.377 395.676 C 71.189 395.608,70.124 395.410,70.009 395.238 C 69.713 394.792,67.770 394.363,67.459 394.674 M330.900 394.682 C 330.405 394.778,330.000 395.014,330.000 395.208 C 330.000 395.402,328.979 395.614,327.732 395.680 C 325.039 395.822,324.168 396.800,326.733 396.800 C 327.613 396.800,328.401 396.596,328.485 396.346 C 328.575 396.076,329.481 395.911,330.718 395.939 C 332.543 395.980,332.800 395.888,332.800 395.193 C 332.800 394.403,332.611 394.353,330.900 394.682 M76.302 396.666 C 76.579 396.777,76.703 397.033,76.579 397.234 C 76.450 397.443,77.651 397.600,79.376 397.600 C 82.464 397.600,83.398 397.100,81.150 396.650 C 79.682 396.356,75.568 396.370,76.302 396.666 M318.500 396.682 C 316.441 397.079,317.766 397.638,320.588 397.563 C 322.231 397.519,323.490 397.345,323.385 397.176 C 323.281 397.007,323.421 396.777,323.698 396.666 C 324.303 396.422,319.778 396.436,318.500 396.682 M85.100 397.493 C 86.035 397.577,86.800 397.805,86.800 398.000 C 86.800 398.195,86.035 398.423,85.100 398.507 C 84.165 398.591,85.586 398.692,88.257 398.730 C 92.102 398.785,93.159 398.683,93.330 398.239 C 93.645 397.418,92.365 397.202,87.600 397.275 C 85.290 397.311,84.165 397.409,85.100 397.493 M307.300 397.465 C 305.257 398.289,307.023 398.797,311.700 398.730 C 314.395 398.692,315.835 398.591,314.900 398.507 C 313.965 398.423,313.200 398.195,313.200 398.000 C 313.200 397.805,313.965 397.577,314.900 397.493 C 315.835 397.409,314.620 397.323,312.200 397.301 C 309.780 397.280,307.575 397.354,307.300 397.465 " stroke="none" fill="#e06a6a" fill-rule="evenodd"></path><path id="path4" d="M1.331 89.800 C 1.333 91.340,1.405 91.921,1.492 91.091 C 1.579 90.261,1.577 89.001,1.489 88.291 C 1.400 87.581,1.329 88.260,1.331 89.800 M173.128 160.642 C 170.933 161.306,168.778 163.562,168.064 165.943 C 167.410 168.126,167.402 239.288,168.055 241.240 C 170.226 247.723,178.346 248.619,181.800 242.758 C 182.585 241.426,182.600 240.681,182.600 203.400 L 182.600 165.400 181.400 163.701 C 179.436 160.921,176.182 159.717,173.128 160.642 M178.804 162.100 C 182.076 164.327,181.787 160.520,181.907 202.929 C 182.018 242.467,182.041 241.916,180.256 243.910 C 177.475 247.018,171.785 246.499,169.357 242.916 C 168.167 241.162,168.176 166.026,169.366 164.270 C 171.436 161.215,175.971 160.172,178.804 162.100 M205.790 180.424 C 204.200 180.887,201.998 183.194,201.338 185.089 C 200.354 187.916,200.577 259.414,201.578 261.748 C 203.563 266.378,209.565 267.713,213.372 264.371 C 215.682 262.342,216.000 260.670,216.000 250.529 C 216.000 245.618,216.090 241.600,216.199 241.600 C 216.309 241.600,217.278 242.232,218.353 243.005 C 228.877 250.565,245.649 245.461,250.573 233.200 C 250.970 232.210,251.443 231.040,251.622 230.600 C 254.688 223.088,254.690 203.648,251.625 195.000 C 247.113 182.264,231.286 176.268,219.480 182.823 C 215.476 185.047,215.482 185.045,215.280 184.439 C 214.220 181.260,209.614 179.311,205.790 180.424 M43.200 181.022 C 39.671 182.169,37.788 184.673,37.827 188.169 C 37.853 190.459,38.168 191.237,43.271 201.600 C 60.747 237.097,61.998 239.781,62.659 243.200 C 63.315 246.590,60.837 248.498,55.388 248.801 C 49.843 249.108,47.715 250.577,46.761 254.753 C 44.633 264.075,62.872 267.201,71.103 258.925 C 73.789 256.223,74.861 253.889,77.770 244.400 C 79.438 238.960,80.703 234.911,82.201 230.221 C 82.971 227.813,83.600 225.554,83.600 225.201 C 83.600 224.849,83.750 224.389,83.933 224.180 C 84.115 223.971,84.488 222.990,84.761 222.000 C 85.461 219.463,87.874 211.562,89.037 208.000 C 89.576 206.350,90.178 204.460,90.375 203.800 C 92.388 197.048,92.929 195.287,93.199 194.600 C 94.861 190.366,95.156 187.470,94.141 185.332 C 91.386 179.527,83.767 179.072,80.645 184.526 C 79.691 186.193,79.106 187.943,75.803 199.000 C 75.212 200.980,74.582 202.960,74.405 203.400 C 74.227 203.840,73.681 205.550,73.191 207.200 C 72.702 208.850,72.076 210.920,71.801 211.800 C 71.526 212.680,70.894 214.709,70.397 216.309 C 69.597 218.886,68.800 220.357,68.800 219.258 C 68.800 219.044,66.305 213.768,63.256 207.534 C 60.207 201.300,56.405 193.523,54.808 190.252 C 51.746 183.981,49.864 181.529,47.763 181.072 C 47.123 180.933,46.240 180.733,45.800 180.628 C 45.360 180.523,44.190 180.700,43.200 181.022 M123.345 181.174 C 108.482 183.544,101.591 194.065,101.606 214.361 C 101.623 237.425,111.864 248.817,130.749 246.781 C 136.302 246.182,143.068 244.245,143.533 243.122 C 143.607 242.945,143.858 242.800,144.092 242.800 C 144.990 242.800,149.031 239.193,150.346 237.218 C 153.257 232.844,152.006 227.403,147.662 225.541 C 145.246 224.505,143.446 225.151,139.473 228.479 C 130.072 236.353,118.619 233.420,117.687 222.901 C 117.376 219.391,116.316 219.600,134.463 219.600 C 154.658 219.600,153.603 220.101,153.597 210.513 C 153.584 188.821,142.542 178.112,123.345 181.174 M212.993 182.531 C 213.987 183.484,214.800 184.564,214.800 184.931 C 214.800 185.924,215.903 185.746,217.970 184.419 C 229.193 177.217,244.262 181.095,249.757 192.600 C 252.552 198.452,252.967 201.025,252.985 212.600 C 253.007 226.493,251.277 233.211,246.147 239.165 C 239.492 246.888,224.931 248.159,217.531 241.661 C 215.331 239.730,215.265 239.985,215.126 251.007 C 215.005 260.604,214.964 261.058,214.087 262.468 C 211.531 266.578,205.776 266.701,202.782 262.709 L 201.800 261.400 201.678 225.000 C 201.611 204.980,201.672 187.635,201.813 186.455 C 202.467 180.974,208.982 178.688,212.993 182.531 M49.307 182.615 C 50.593 183.488,51.418 184.892,55.246 192.715 C 69.921 222.708,69.021 221.035,69.881 219.900 C 70.089 219.625,70.581 218.230,70.974 216.800 C 71.367 215.370,71.824 213.840,71.989 213.400 C 72.154 212.960,72.480 211.970,72.712 211.200 C 73.726 207.844,76.477 198.913,76.778 198.000 C 76.959 197.450,77.329 196.190,77.599 195.200 C 77.870 194.210,78.230 193.040,78.399 192.600 C 78.568 192.160,79.198 190.277,79.799 188.416 C 81.608 182.814,82.936 181.600,87.256 181.600 C 93.816 181.600,95.546 186.908,92.015 196.200 C 91.848 196.640,91.520 197.630,91.288 198.400 C 91.055 199.170,90.116 202.230,89.200 205.200 C 88.284 208.170,87.374 211.140,87.176 211.800 C 86.979 212.460,86.470 214.080,86.045 215.400 C 85.259 217.842,84.038 221.804,82.408 227.200 C 81.183 231.255,80.559 233.257,79.418 236.800 C 78.886 238.450,77.799 241.960,77.002 244.600 C 74.524 252.812,73.175 255.887,71.125 258.000 C 68.890 260.303,68.311 260.648,63.681 262.444 C 61.710 263.208,53.339 262.869,51.375 261.946 C 43.771 258.372,46.805 249.696,55.800 249.293 C 63.626 248.943,65.303 244.837,61.029 236.489 C 60.498 235.450,58.227 230.820,55.984 226.200 C 53.740 221.580,50.150 214.200,48.004 209.800 C 45.859 205.400,42.820 199.168,41.252 195.951 C 38.208 189.708,37.869 188.165,38.965 185.549 C 40.557 181.748,45.830 180.252,49.307 182.615 M138.367 182.744 C 148.036 186.169,152.800 195.173,152.800 210.021 C 152.800 219.788,154.026 219.200,133.672 219.200 C 116.515 219.200,116.800 219.155,116.800 221.854 C 116.800 226.397,120.291 231.606,124.237 232.951 C 129.639 234.791,134.327 233.419,141.123 228.009 C 145.467 224.550,149.607 225.536,151.035 230.371 C 151.960 233.504,149.860 238.102,146.429 240.458 C 145.675 240.976,144.858 241.580,144.613 241.800 C 140.846 245.191,126.934 247.385,120.200 245.649 C 104.838 241.689,98.646 224.217,103.811 199.400 C 103.948 198.740,104.208 197.840,104.389 197.400 C 106.938 191.205,109.519 187.905,114.000 185.113 C 115.977 183.881,117.336 183.358,122.000 182.035 C 124.738 181.258,135.486 181.724,138.367 182.744 M224.932 193.900 C 215.424 197.896,214.959 227.404,224.333 231.897 C 229.448 234.349,239.200 231.288,239.200 227.231 C 239.200 226.988,239.358 226.477,239.551 226.095 C 241.963 221.321,241.950 202.582,239.533 199.820 C 239.350 199.611,239.200 199.190,239.200 198.884 C 239.200 194.840,230.185 191.691,224.932 193.900 M125.800 194.043 C 121.426 195.034,117.262 198.788,116.542 202.389 C 116.407 203.064,116.140 203.714,115.948 203.832 C 115.223 204.280,115.557 207.549,116.374 207.986 C 117.710 208.701,140.589 208.537,141.193 207.808 C 141.848 207.019,141.117 202.731,139.841 199.875 C 137.648 194.968,132.025 192.632,125.800 194.043 M234.726 194.806 C 235.768 195.255,236.871 196.022,237.177 196.511 C 242.061 204.325,242.061 221.675,237.177 229.489 C 235.236 232.595,227.055 233.147,223.299 230.426 C 216.897 225.788,216.855 200.118,223.243 195.570 C 226.152 193.498,230.945 193.180,234.726 194.806 M135.164 195.654 C 138.231 197.299,141.212 203.073,140.735 206.445 L 140.600 207.400 128.600 207.400 L 116.600 207.400 116.689 205.283 C 117.038 196.932,127.439 191.511,135.164 195.654 M1.331 310.200 C 1.333 311.740,1.405 312.321,1.492 311.491 C 1.579 310.661,1.577 309.401,1.489 308.691 C 1.400 307.981,1.329 308.660,1.331 310.200 " stroke="none" fill="#7c7a78" fill-rule="evenodd"></path></g></svg>