<svg id="svg" version="1.1" xmlns="http://www.w3.org/2000/svg" xmlns:xlink="http://www.w3.org/1999/xlink" width="400" height="400" viewBox="0, 0, 400,400"><g id="svgg"><path id="path0" d="M160.400 200.234 L 160.400 259.668 162.300 258.586 C 163.345 257.991,165.190 256.955,166.400 256.285 C 167.610 255.615,169.860 254.314,171.400 253.394 C 172.940 252.473,175.190 251.180,176.400 250.519 C 177.610 249.858,179.590 248.726,180.800 248.003 C 182.010 247.280,183.585 246.353,184.300 245.944 C 185.015 245.535,186.230 244.840,187.000 244.400 C 187.770 243.960,189.030 243.240,189.800 242.800 C 190.570 242.360,191.830 241.640,192.600 241.200 C 193.370 240.760,194.585 240.060,195.300 239.645 C 196.015 239.230,198.310 237.908,200.400 236.708 C 202.490 235.507,205.153 233.956,206.318 233.262 C 207.482 232.568,208.499 232.000,208.577 232.000 C 208.655 232.000,209.903 231.280,211.352 230.400 C 212.800 229.520,214.169 228.800,214.393 228.800 C 214.617 228.800,214.800 228.664,214.800 228.498 C 214.800 228.331,215.385 227.943,216.100 227.635 C 216.815 227.327,217.850 226.764,218.400 226.384 C 219.347 225.730,220.145 225.264,224.400 222.877 C 225.390 222.322,229.620 219.894,233.800 217.482 C 237.980 215.069,241.940 212.784,242.600 212.404 C 243.260 212.024,244.545 211.283,245.455 210.757 C 246.365 210.230,250.726 207.730,255.147 205.200 C 259.567 202.670,263.184 200.420,263.185 200.200 C 263.186 199.980,261.345 198.761,259.093 197.491 C 256.842 196.222,254.190 194.711,253.200 194.135 C 251.505 193.148,250.860 192.777,247.400 190.800 C 246.630 190.360,245.370 189.640,244.600 189.200 C 243.830 188.760,242.615 188.060,241.900 187.645 C 241.185 187.230,238.890 185.912,236.800 184.715 C 234.710 183.518,230.750 181.222,228.000 179.612 C 225.250 178.002,222.010 176.144,220.800 175.485 C 219.590 174.825,218.420 174.150,218.200 173.985 C 217.753 173.650,215.701 172.482,212.400 170.683 C 211.190 170.024,210.020 169.348,209.800 169.180 C 209.580 169.013,206.970 167.489,204.000 165.793 C 201.030 164.098,198.015 162.371,197.300 161.955 C 196.585 161.540,195.370 160.840,194.600 160.400 C 193.830 159.960,192.570 159.240,191.800 158.800 C 189.772 157.641,188.388 156.841,182.800 153.595 C 180.050 151.998,175.460 149.346,172.600 147.701 C 169.740 146.056,166.815 144.371,166.100 143.955 C 165.385 143.540,164.125 142.823,163.300 142.362 C 162.475 141.902,161.629 141.362,161.420 141.162 C 161.211 140.963,160.896 140.800,160.720 140.800 C 160.544 140.800,160.400 167.545,160.400 200.234 " stroke="none" fill="#fcfbfb" fill-rule="evenodd"></path><path id="path1" d="M144.800 59.998 C 144.445 60.229,139.196 60.390,131.924 60.394 C 124.178 60.398,119.556 60.548,119.400 60.800 C 119.247 61.048,115.604 61.200,109.800 61.200 C 103.996 61.200,100.353 61.352,100.200 61.600 C 100.051 61.840,97.337 62.000,93.400 62.000 C 89.463 62.000,86.749 62.160,86.600 62.400 C 86.455 62.635,84.129 62.800,80.976 62.800 C 77.659 62.800,75.600 62.953,75.600 63.200 C 75.600 63.442,73.867 63.600,71.200 63.600 C 68.533 63.600,66.800 63.758,66.800 64.000 C 66.800 64.239,65.267 64.400,63.000 64.400 C 60.733 64.400,59.200 64.561,59.200 64.800 C 59.200 65.029,58.000 65.200,56.400 65.200 C 54.800 65.200,53.600 65.371,53.600 65.600 C 53.600 65.822,52.533 66.000,51.200 66.000 C 49.867 66.000,48.800 66.178,48.800 66.400 C 48.800 66.620,47.900 66.800,46.800 66.800 C 45.700 66.800,44.800 66.980,44.800 67.200 C 44.800 67.420,44.170 67.600,43.400 67.600 C 42.630 67.600,42.000 67.780,42.000 68.000 C 42.000 68.220,41.460 68.400,40.800 68.400 C 40.140 68.400,39.600 68.580,39.600 68.800 C 39.600 69.020,39.060 69.200,38.400 69.200 C 37.740 69.200,37.200 69.380,37.200 69.600 C 37.200 69.820,36.840 70.000,36.400 70.000 C 35.960 70.000,35.600 70.180,35.600 70.400 C 35.600 70.620,35.240 70.800,34.800 70.800 C 34.360 70.800,34.000 70.980,34.000 71.200 C 34.000 71.420,33.640 71.600,33.200 71.600 C 32.760 71.600,32.400 71.780,32.400 72.000 C 32.400 72.220,32.122 72.400,31.783 72.400 C 31.444 72.400,30.780 72.760,30.308 73.200 C 29.836 73.640,29.213 74.000,28.925 74.000 C 28.636 74.000,28.400 74.141,28.400 74.314 C 28.400 74.486,27.815 74.973,27.100 75.395 C 26.386 75.818,25.387 76.576,24.882 77.081 C 24.377 77.587,23.791 78.000,23.579 78.000 C 23.065 78.000,17.600 83.549,17.600 84.070 C 17.600 84.295,17.060 84.983,16.400 85.600 C 15.740 86.217,15.200 86.969,15.200 87.272 C 15.200 87.575,14.840 88.083,14.400 88.400 C 13.960 88.717,13.600 89.257,13.600 89.600 C 13.600 89.943,13.240 90.483,12.800 90.800 C 12.360 91.117,12.000 91.682,12.000 92.055 C 12.000 92.428,11.857 92.793,11.681 92.867 C 11.331 93.013,9.600 96.575,9.600 97.150 C 9.600 97.347,9.331 98.024,9.002 98.654 C 8.674 99.284,8.404 100.295,8.402 100.900 C 8.401 101.505,8.220 102.000,8.000 102.000 C 7.780 102.000,7.600 102.720,7.600 103.600 C 7.600 104.480,7.420 105.200,7.200 105.200 C 6.980 105.200,6.800 105.920,6.800 106.800 C 6.800 107.680,6.620 108.400,6.400 108.400 C 6.180 108.400,6.000 109.289,6.000 110.376 C 6.000 111.463,5.820 112.464,5.600 112.600 C 5.380 112.736,5.200 113.737,5.200 114.824 C 5.200 115.911,5.020 116.800,4.800 116.800 C 4.571 116.800,4.400 118.000,4.400 119.600 C 4.400 121.200,4.229 122.400,4.000 122.400 C 3.772 122.400,3.600 123.592,3.600 125.176 C 3.600 126.703,3.420 128.064,3.200 128.200 C 2.980 128.336,2.800 129.967,2.800 131.824 C 2.800 133.808,2.635 135.200,2.400 135.200 C 2.159 135.200,2.000 136.859,2.000 139.376 C 2.000 141.729,1.825 143.661,1.600 143.800 C 1.366 143.945,1.200 146.244,1.200 149.344 C 1.200 153.047,1.050 154.790,0.700 155.140 C -0.033 155.873,-0.033 245.256,0.700 245.500 C 1.067 245.622,1.200 247.091,1.200 251.010 C 1.200 254.140,1.366 256.455,1.600 256.600 C 1.825 256.739,2.000 258.671,2.000 261.024 C 2.000 263.541,2.159 265.200,2.400 265.200 C 2.635 265.200,2.800 266.592,2.800 268.576 C 2.800 270.433,2.980 272.064,3.200 272.200 C 3.420 272.336,3.600 273.787,3.600 275.424 C 3.600 277.141,3.769 278.400,4.000 278.400 C 4.226 278.400,4.400 279.533,4.400 281.000 C 4.400 282.467,4.574 283.600,4.800 283.600 C 5.020 283.600,5.200 284.590,5.200 285.800 C 5.200 287.010,5.380 288.000,5.600 288.000 C 5.820 288.000,6.000 288.810,6.000 289.800 C 6.000 290.790,6.180 291.600,6.400 291.600 C 6.620 291.600,6.800 292.320,6.800 293.200 C 6.800 294.080,6.980 294.800,7.200 294.800 C 7.420 294.800,7.600 295.520,7.600 296.400 C 7.600 297.280,7.756 298.000,7.946 298.000 C 8.136 298.000,8.404 298.825,8.542 299.833 C 8.784 301.592,11.822 308.458,12.481 308.733 C 12.656 308.807,12.800 309.172,12.800 309.545 C 12.800 309.918,13.160 310.483,13.600 310.800 C 14.040 311.117,14.400 311.657,14.400 312.000 C 14.400 312.343,14.760 312.883,15.200 313.200 C 15.640 313.517,16.000 313.998,16.000 314.268 C 16.000 315.336,25.595 324.303,28.100 325.576 C 28.705 325.884,29.200 326.285,29.200 326.468 C 29.200 326.650,29.560 326.800,30.000 326.800 C 30.440 326.800,30.800 326.980,30.800 327.200 C 30.800 327.420,31.160 327.600,31.600 327.600 C 32.040 327.600,32.400 327.780,32.400 328.000 C 32.400 328.220,32.670 328.400,33.000 328.400 C 33.330 328.400,33.600 328.580,33.600 328.800 C 33.600 329.020,34.050 329.200,34.600 329.200 C 35.150 329.200,35.600 329.380,35.600 329.600 C 35.600 329.820,35.960 330.000,36.400 330.000 C 36.840 330.000,37.200 330.180,37.200 330.400 C 37.200 330.620,37.639 330.800,38.176 330.800 C 38.713 330.800,39.264 330.980,39.400 331.200 C 39.536 331.420,40.177 331.600,40.824 331.600 C 41.471 331.600,42.000 331.780,42.000 332.000 C 42.000 332.220,42.529 332.400,43.176 332.400 C 43.823 332.400,44.464 332.580,44.600 332.800 C 44.736 333.020,45.557 333.200,46.424 333.200 C 47.291 333.200,48.000 333.380,48.000 333.600 C 48.000 333.822,49.059 334.000,50.376 334.000 C 51.683 334.000,52.864 334.180,53.000 334.400 C 53.136 334.620,54.407 334.800,55.824 334.800 C 57.275 334.800,58.400 334.975,58.400 335.200 C 58.400 335.435,59.800 335.600,61.800 335.600 C 63.800 335.600,65.200 335.765,65.200 336.000 C 65.200 336.240,66.800 336.400,69.200 336.400 C 71.433 336.400,73.200 336.566,73.200 336.776 C 73.200 337.141,76.655 337.373,88.800 337.826 C 91.990 337.945,94.771 338.213,94.980 338.421 C 95.193 338.633,98.725 338.800,103.000 338.800 C 107.378 338.800,110.805 338.965,111.026 339.186 C 111.242 339.402,115.902 339.667,121.606 339.788 C 127.213 339.906,139.450 340.187,148.800 340.412 C 170.877 340.943,230.227 340.944,252.200 340.414 C 261.660 340.186,274.077 339.903,279.794 339.786 C 285.635 339.666,290.356 339.404,290.574 339.186 C 290.796 338.964,294.310 338.800,298.856 338.800 C 303.689 338.800,306.849 338.645,307.000 338.400 C 307.146 338.163,309.596 338.000,313.000 338.000 C 316.404 338.000,318.854 337.837,319.000 337.600 C 319.142 337.370,321.263 337.200,324.000 337.200 C 326.737 337.200,328.858 337.030,329.000 336.800 C 329.136 336.579,330.930 336.400,333.000 336.400 C 335.070 336.400,336.864 336.221,337.000 336.000 C 337.136 335.780,338.587 335.600,340.224 335.600 C 341.941 335.600,343.200 335.431,343.200 335.200 C 343.200 334.971,344.400 334.800,346.000 334.800 C 347.600 334.800,348.800 334.629,348.800 334.400 C 348.800 334.180,349.779 334.000,350.976 334.000 C 352.173 334.000,353.264 333.820,353.400 333.600 C 353.536 333.380,354.256 333.200,355.000 333.200 C 355.744 333.200,356.464 333.020,356.600 332.800 C 356.736 332.580,357.467 332.400,358.224 332.400 C 358.981 332.400,359.600 332.220,359.600 332.000 C 359.600 331.780,360.039 331.600,360.576 331.600 C 361.113 331.600,361.664 331.420,361.800 331.200 C 361.936 330.980,362.397 330.800,362.824 330.800 C 363.251 330.800,363.600 330.620,363.600 330.400 C 363.600 330.180,363.960 330.000,364.400 330.000 C 364.840 330.000,365.200 329.820,365.200 329.600 C 365.200 329.380,365.560 329.200,366.000 329.200 C 366.440 329.200,366.800 329.020,366.800 328.800 C 366.800 328.580,367.160 328.400,367.600 328.400 C 368.040 328.400,368.400 328.220,368.400 328.000 C 368.400 327.780,368.760 327.600,369.200 327.600 C 369.640 327.600,370.000 327.420,370.000 327.200 C 370.000 326.980,370.270 326.800,370.600 326.800 C 370.930 326.800,371.200 326.620,371.200 326.400 C 371.200 326.180,371.470 326.000,371.800 326.000 C 372.130 326.000,372.400 325.849,372.400 325.664 C 372.400 325.480,372.805 325.140,373.300 324.909 C 375.573 323.851,384.800 314.625,384.800 313.410 C 384.800 313.172,385.160 312.717,385.600 312.400 C 386.040 312.083,386.400 311.586,386.400 311.295 C 386.400 311.004,386.760 310.380,387.200 309.908 C 387.640 309.436,388.000 308.813,388.000 308.525 C 388.000 308.236,388.180 308.000,388.400 308.000 C 388.620 308.000,388.800 307.640,388.800 307.200 C 388.800 306.760,388.980 306.400,389.200 306.400 C 389.420 306.400,389.600 306.128,389.600 305.795 C 389.600 305.462,389.765 304.877,389.966 304.495 C 390.951 302.628,391.600 300.779,391.600 299.840 C 391.600 299.268,391.780 298.800,392.000 298.800 C 392.220 298.800,392.400 298.080,392.400 297.200 C 392.400 296.320,392.580 295.600,392.800 295.600 C 393.020 295.600,393.200 294.700,393.200 293.600 C 393.200 292.500,393.380 291.600,393.600 291.600 C 393.820 291.600,394.000 290.790,394.000 289.800 C 394.000 288.810,394.180 288.000,394.400 288.000 C 394.620 288.000,394.800 287.111,394.800 286.024 C 394.800 284.937,394.980 283.936,395.200 283.800 C 395.420 283.664,395.600 282.393,395.600 280.976 C 395.600 279.525,395.775 278.400,396.000 278.400 C 396.231 278.400,396.400 277.133,396.400 275.400 C 396.400 273.667,396.569 272.400,396.800 272.400 C 397.037 272.400,397.200 270.933,397.200 268.800 C 397.200 266.667,397.363 265.200,397.600 265.200 C 397.841 265.200,398.000 263.541,398.000 261.024 C 398.000 258.671,398.175 256.739,398.400 256.600 C 398.634 256.455,398.800 254.140,398.800 251.010 C 398.800 247.091,398.933 245.622,399.300 245.500 C 399.696 245.368,399.800 235.808,399.800 199.487 C 399.800 163.343,399.694 153.534,399.300 153.140 C 398.952 152.792,398.800 151.087,398.800 147.544 C 398.800 144.577,398.633 142.344,398.400 142.200 C 398.177 142.062,398.000 140.196,398.000 137.976 C 398.000 135.592,397.840 134.000,397.600 134.000 C 397.365 134.000,397.200 132.600,397.200 130.600 C 397.200 128.600,397.035 127.200,396.800 127.200 C 396.571 127.200,396.400 126.000,396.400 124.400 C 396.400 122.800,396.229 121.600,396.000 121.600 C 395.775 121.600,395.600 120.475,395.600 119.024 C 395.600 117.607,395.420 116.336,395.200 116.200 C 394.980 116.064,394.800 115.164,394.800 114.200 C 394.800 113.236,394.620 112.336,394.400 112.200 C 394.180 112.064,394.000 111.153,394.000 110.176 C 394.000 109.199,393.820 108.400,393.600 108.400 C 393.380 108.400,393.200 107.680,393.200 106.800 C 393.200 105.920,393.020 105.200,392.800 105.200 C 392.580 105.200,392.400 104.480,392.400 103.600 C 392.400 102.720,392.220 102.000,392.000 102.000 C 391.780 102.000,391.599 101.505,391.598 100.900 C 391.596 100.295,391.326 99.284,390.998 98.654 C 390.669 98.024,390.400 97.347,390.400 97.150 C 390.400 96.575,388.669 93.013,388.319 92.867 C 388.143 92.793,388.000 92.428,388.000 92.055 C 388.000 91.682,387.640 91.117,387.200 90.800 C 386.760 90.483,386.400 89.943,386.400 89.600 C 386.400 89.257,386.040 88.717,385.600 88.400 C 385.160 88.083,384.800 87.593,384.800 87.312 C 384.800 87.031,384.080 86.059,383.200 85.152 C 382.320 84.245,381.600 83.326,381.600 83.109 C 381.600 82.599,377.131 78.400,376.589 78.400 C 376.362 78.400,375.912 78.022,375.588 77.560 C 374.969 76.676,371.064 74.000,370.392 74.000 C 370.177 74.000,370.000 73.820,370.000 73.600 C 370.000 73.380,369.640 73.200,369.200 73.200 C 368.760 73.200,368.400 73.020,368.400 72.800 C 368.400 72.580,368.130 72.400,367.800 72.400 C 367.470 72.400,367.199 72.265,367.197 72.100 C 367.193 71.694,365.214 70.800,364.320 70.800 C 363.924 70.800,363.600 70.620,363.600 70.400 C 363.600 70.180,363.240 70.000,362.800 70.000 C 362.360 70.000,362.000 69.820,362.000 69.600 C 362.000 69.380,361.460 69.200,360.800 69.200 C 360.140 69.200,359.600 69.020,359.600 68.800 C 359.600 68.580,359.060 68.400,358.400 68.400 C 357.740 68.400,357.200 68.220,357.200 68.000 C 357.200 67.780,356.480 67.600,355.600 67.600 C 354.720 67.600,354.000 67.420,354.000 67.200 C 354.000 66.980,353.111 66.800,352.024 66.800 C 350.937 66.800,349.936 66.620,349.800 66.400 C 349.664 66.180,348.483 66.000,347.176 66.000 C 345.859 66.000,344.800 65.822,344.800 65.600 C 344.800 65.369,343.533 65.200,341.800 65.200 C 340.067 65.200,338.800 65.031,338.800 64.800 C 338.800 64.563,337.333 64.400,335.200 64.400 C 333.067 64.400,331.600 64.237,331.600 64.000 C 331.600 63.758,329.875 63.600,327.224 63.600 C 324.737 63.600,322.740 63.427,322.600 63.200 C 322.456 62.967,320.204 62.800,317.200 62.800 C 314.196 62.800,311.944 62.633,311.800 62.400 C 311.651 62.159,308.863 62.000,304.776 62.000 C 300.525 62.000,298.000 61.851,298.000 61.600 C 298.000 61.346,294.893 61.200,289.480 61.200 C 284.493 61.200,280.799 61.039,280.571 60.811 C 279.768 60.008,146.019 59.207,144.800 59.998 M164.832 142.454 C 165.364 142.754,165.890 143.104,166.000 143.232 C 166.110 143.360,166.785 143.719,167.500 144.030 C 168.215 144.341,168.800 144.731,168.800 144.898 C 168.800 145.064,168.956 145.200,169.146 145.200 C 169.336 145.200,171.901 146.573,174.846 148.252 C 181.456 152.020,182.082 152.381,184.718 153.944 C 185.882 154.635,187.007 155.200,187.218 155.200 C 187.428 155.200,187.603 155.335,187.606 155.500 C 187.610 155.665,188.510 156.240,189.606 156.779 C 190.703 157.317,191.600 157.902,191.600 158.079 C 191.600 158.255,191.960 158.400,192.400 158.400 C 192.840 158.400,193.200 158.559,193.200 158.753 C 193.200 158.948,193.515 159.210,193.900 159.336 C 194.285 159.462,195.410 160.048,196.400 160.639 C 197.390 161.230,198.740 162.023,199.400 162.401 C 200.060 162.779,201.553 163.653,202.718 164.344 C 203.882 165.035,204.914 165.600,205.011 165.600 C 205.107 165.600,206.314 166.290,207.693 167.133 C 209.072 167.976,211.010 169.120,212.000 169.676 C 212.990 170.232,214.450 171.055,215.245 171.506 C 216.040 171.956,217.120 172.567,217.645 172.862 C 218.170 173.158,218.690 173.490,218.800 173.600 C 218.910 173.710,219.720 174.174,220.600 174.630 C 222.669 175.704,224.148 176.548,224.400 176.800 C 224.510 176.910,225.030 177.242,225.555 177.538 C 226.080 177.833,227.160 178.445,227.955 178.897 C 228.750 179.348,230.390 180.265,231.600 180.933 C 232.810 181.601,235.780 183.309,238.200 184.728 C 242.411 187.197,243.455 187.803,246.600 189.600 C 247.370 190.040,248.630 190.760,249.400 191.200 C 250.944 192.082,252.975 193.235,254.445 194.062 C 254.970 194.358,255.490 194.690,255.600 194.800 C 255.710 194.910,256.610 195.437,257.600 195.970 C 260.973 197.789,264.141 199.799,264.265 200.200 C 264.385 200.588,257.524 204.800,256.773 204.800 C 256.568 204.800,256.400 204.936,256.400 205.102 C 256.400 205.269,255.815 205.658,255.100 205.968 C 254.385 206.277,253.080 207.001,252.200 207.577 C 251.320 208.153,250.060 208.889,249.400 209.212 C 248.740 209.535,248.110 209.889,248.000 209.999 C 247.804 210.196,247.340 210.468,244.445 212.080 C 243.650 212.523,242.820 213.020,242.600 213.185 C 242.380 213.350,241.210 214.029,240.000 214.694 C 238.085 215.747,232.841 218.739,228.400 221.312 C 227.630 221.758,226.280 222.500,225.400 222.962 C 224.520 223.423,223.710 223.903,223.600 224.030 C 223.490 224.156,222.590 224.696,221.600 225.230 C 220.610 225.763,219.710 226.290,219.600 226.401 C 219.490 226.511,218.860 226.871,218.200 227.200 C 217.540 227.529,216.910 227.889,216.800 227.999 C 216.596 228.204,216.053 228.520,212.832 230.310 C 211.824 230.869,210.329 231.749,209.508 232.264 C 208.687 232.779,207.937 233.200,207.841 233.200 C 207.745 233.200,206.256 234.036,204.533 235.058 C 202.810 236.079,200.815 237.249,200.100 237.658 C 199.385 238.066,198.125 238.788,197.300 239.262 C 196.475 239.735,195.080 240.500,194.200 240.962 C 193.320 241.423,192.510 241.890,192.400 242.000 C 192.290 242.110,191.770 242.442,191.245 242.738 C 190.720 243.033,189.709 243.602,188.998 244.001 C 188.288 244.400,186.494 245.463,185.012 246.363 C 183.531 247.263,182.268 248.000,182.207 248.000 C 182.146 248.000,179.960 249.233,177.348 250.739 C 174.737 252.245,171.790 253.930,170.800 254.482 C 166.802 256.714,165.757 257.324,164.800 257.984 C 164.250 258.364,163.215 258.927,162.500 259.235 C 161.785 259.543,161.200 259.931,161.200 260.098 C 161.200 260.264,160.930 260.400,160.600 260.400 C 159.979 260.400,159.631 140.902,160.251 140.282 C 160.474 140.059,161.165 140.386,164.832 142.454 " stroke="none" fill="#fc0404" fill-rule="evenodd"></path><path id="path2" d="" stroke="none" fill="#fc6c6c" fill-rule="evenodd"></path><path id="path3" d="M178.600 150.607 C 179.040 150.966,179.760 151.435,180.200 151.651 L 181.000 152.044 180.200 151.393 C 179.760 151.034,179.040 150.565,178.600 150.349 L 177.800 149.956 178.600 150.607 M181.600 152.420 C 182.987 153.361,183.778 153.635,182.800 152.836 C 182.250 152.386,181.620 152.017,181.400 152.015 C 181.180 152.013,181.270 152.196,181.600 152.420 M207.200 167.164 C 207.750 167.614,208.380 167.983,208.600 167.985 C 209.028 167.988,208.305 167.434,207.000 166.760 C 206.469 166.485,206.536 166.621,207.200 167.164 M234.800 182.979 C 234.800 183.089,235.340 183.459,236.000 183.800 C 236.660 184.141,237.200 184.331,237.200 184.221 C 237.200 184.111,236.660 183.741,236.000 183.400 C 235.340 183.059,234.800 182.869,234.800 182.979 M241.500 213.429 C 240.005 214.240,240.096 214.578,241.600 213.800 C 242.260 213.459,242.800 213.094,242.800 212.990 C 242.800 212.732,242.757 212.747,241.500 213.429 M233.600 218.036 C 232.936 218.579,232.869 218.715,233.400 218.440 C 234.705 217.766,235.428 217.212,235.000 217.215 C 234.780 217.217,234.150 217.586,233.600 218.036 M214.200 229.200 C 213.540 229.637,213.180 229.992,213.400 229.988 C 213.801 229.982,215.976 228.423,215.600 228.412 C 215.490 228.408,214.860 228.763,214.200 229.200 M209.000 232.190 C 208.120 232.732,207.525 233.181,207.677 233.188 C 208.024 233.203,210.800 231.579,210.800 231.360 C 210.800 231.100,210.676 231.157,209.000 232.190 M183.000 247.200 C 182.340 247.637,181.980 247.992,182.200 247.988 C 182.601 247.982,184.776 246.423,184.400 246.412 C 184.290 246.408,183.660 246.763,183.000 247.200 M172.700 253.029 C 171.205 253.840,171.296 254.178,172.800 253.400 C 173.460 253.059,174.000 252.694,174.000 252.590 C 174.000 252.332,173.957 252.347,172.700 253.029 " stroke="none" fill="#fc5656" fill-rule="evenodd"></path><path id="path4" d="M160.185 140.900 C 160.080 141.175,160.041 167.950,160.097 200.400 L 160.200 259.400 160.400 199.900 C 160.510 167.175,160.549 140.400,160.487 140.400 C 160.426 140.400,160.289 140.625,160.185 140.900 M164.800 143.164 C 165.350 143.614,165.980 143.983,166.200 143.985 C 166.628 143.988,165.905 143.434,164.600 142.760 C 164.069 142.485,164.136 142.621,164.800 143.164 M167.400 144.607 C 167.840 144.966,168.560 145.435,169.000 145.651 L 169.800 146.044 169.000 145.393 C 168.560 145.034,167.840 144.565,167.400 144.349 L 166.600 143.956 167.400 144.607 M170.400 146.421 C 171.442 147.130,173.200 148.028,173.200 147.850 C 173.200 147.628,170.439 145.998,170.077 146.006 C 169.925 146.009,170.070 146.196,170.400 146.421 M178.400 150.990 C 178.400 151.094,178.985 151.465,179.700 151.814 L 181.000 152.448 180.000 151.633 C 179.037 150.848,178.400 150.592,178.400 150.990 M181.200 152.590 C 181.200 152.694,181.785 153.065,182.500 153.414 L 183.800 154.048 182.800 153.233 C 181.837 152.448,181.200 152.192,181.200 152.590 M184.000 154.179 C 184.000 154.289,184.540 154.659,185.200 155.000 C 185.860 155.341,186.400 155.531,186.400 155.421 C 186.400 155.311,185.860 154.941,185.200 154.600 C 184.540 154.259,184.000 154.069,184.000 154.179 M187.600 156.367 C 188.563 157.152,189.200 157.408,189.200 157.010 C 189.200 156.906,188.615 156.535,187.900 156.186 L 186.600 155.552 187.600 156.367 M190.400 157.964 C 190.950 158.414,191.580 158.783,191.800 158.785 C 192.228 158.788,191.505 158.234,190.200 157.560 C 189.669 157.285,189.736 157.421,190.400 157.964 M193.200 159.564 C 193.750 160.014,194.380 160.383,194.600 160.385 C 195.028 160.388,194.305 159.834,193.000 159.160 C 192.469 158.885,192.536 159.021,193.200 159.564 M196.000 161.164 C 196.550 161.614,197.180 161.983,197.400 161.985 C 197.828 161.988,197.105 161.434,195.800 160.760 C 195.269 160.485,195.336 160.621,196.000 161.164 M198.000 162.150 C 198.000 162.268,199.305 163.116,200.900 164.035 C 202.495 164.954,204.385 166.057,205.100 166.486 C 205.815 166.914,206.400 167.169,206.400 167.050 C 206.400 166.932,205.095 166.084,203.500 165.165 C 201.905 164.246,200.015 163.143,199.300 162.714 C 198.585 162.286,198.000 162.031,198.000 162.150 M209.600 168.990 C 209.600 169.094,210.185 169.465,210.900 169.814 L 212.200 170.448 211.200 169.633 C 210.237 168.848,209.600 168.592,209.600 168.990 M218.000 173.741 C 218.000 174.008,221.690 176.043,221.863 175.871 C 221.940 175.793,221.103 175.239,220.002 174.640 C 218.901 174.040,218.000 173.636,218.000 173.741 M226.000 178.420 C 227.387 179.361,228.178 179.635,227.200 178.836 C 226.650 178.386,226.020 178.017,225.800 178.015 C 225.580 178.013,225.670 178.196,226.000 178.420 M228.800 180.020 C 230.187 180.961,230.978 181.235,230.000 180.436 C 229.450 179.986,228.820 179.617,228.600 179.615 C 228.380 179.613,228.470 179.796,228.800 180.020 M231.400 181.506 C 231.944 182.058,236.400 184.527,236.400 184.276 C 236.400 184.166,235.365 183.474,234.100 182.738 C 231.466 181.206,230.809 180.907,231.400 181.506 M240.400 186.767 C 241.363 187.552,242.000 187.808,242.000 187.410 C 242.000 187.306,241.415 186.935,240.700 186.586 L 239.400 185.952 240.400 186.767 M243.200 188.367 C 244.163 189.152,244.800 189.408,244.800 189.010 C 244.800 188.906,244.215 188.535,243.500 188.186 L 242.200 187.552 243.200 188.367 M246.000 189.964 C 246.550 190.414,247.180 190.783,247.400 190.785 C 247.828 190.788,247.105 190.234,245.800 189.560 C 245.269 189.285,245.336 189.421,246.000 189.964 M251.600 193.164 C 252.150 193.614,252.780 193.983,253.000 193.985 C 253.428 193.988,252.705 193.434,251.400 192.760 C 250.869 192.485,250.936 192.621,251.600 193.164 M254.200 194.607 C 254.640 194.966,255.360 195.435,255.800 195.651 L 256.600 196.044 255.800 195.393 C 255.360 195.034,254.640 194.565,254.200 194.349 L 253.400 193.956 254.200 194.607 M257.200 196.420 C 258.587 197.361,259.378 197.635,258.400 196.836 C 257.850 196.386,257.220 196.017,257.000 196.015 C 256.780 196.013,256.870 196.196,257.200 196.420 M260.000 198.020 C 261.387 198.961,262.178 199.235,261.200 198.436 C 260.650 197.986,260.020 197.617,259.800 197.615 C 259.580 197.613,259.670 197.796,260.000 198.020 M262.700 199.465 C 262.975 199.576,263.200 199.932,263.200 200.257 C 263.200 200.582,263.389 200.731,263.619 200.588 C 264.125 200.276,263.345 199.183,262.651 199.232 C 262.368 199.251,262.386 199.338,262.700 199.465 M261.500 201.429 C 260.005 202.240,260.096 202.578,261.600 201.800 C 262.260 201.459,262.800 201.094,262.800 200.990 C 262.800 200.732,262.757 200.747,261.500 201.429 M258.600 203.200 C 257.940 203.637,257.580 203.992,257.800 203.988 C 258.201 203.982,260.376 202.423,260.000 202.412 C 259.890 202.408,259.260 202.763,258.600 203.200 M255.096 205.158 C 252.660 206.587,252.119 207.144,254.200 206.080 C 255.745 205.291,257.610 204.018,257.200 204.033 C 257.090 204.037,256.143 204.543,255.096 205.158 M251.100 207.429 C 249.605 208.240,249.696 208.578,251.200 207.800 C 251.860 207.459,252.400 207.094,252.400 206.990 C 252.400 206.732,252.357 206.747,251.100 207.429 M247.700 209.426 C 246.765 209.987,246.000 210.540,246.000 210.655 C 246.000 210.871,248.699 209.338,249.380 208.736 C 250.067 208.128,249.427 208.391,247.700 209.426 M241.200 213.236 C 240.536 213.779,240.469 213.915,241.000 213.640 C 242.305 212.966,243.028 212.412,242.600 212.415 C 242.380 212.417,241.750 212.786,241.200 213.236 M235.900 216.229 C 234.405 217.040,234.496 217.378,236.000 216.600 C 236.660 216.259,237.200 215.894,237.200 215.790 C 237.200 215.532,237.157 215.547,235.900 216.229 M233.100 217.829 C 231.605 218.640,231.696 218.978,233.200 218.200 C 233.860 217.859,234.400 217.494,234.400 217.390 C 234.400 217.132,234.357 217.147,233.100 217.829 M230.300 219.429 C 228.805 220.240,228.896 220.578,230.400 219.800 C 231.060 219.459,231.600 219.094,231.600 218.990 C 231.600 218.732,231.557 218.747,230.300 219.429 M222.400 224.036 C 221.736 224.579,221.669 224.715,222.200 224.440 C 223.505 223.766,224.228 223.212,223.800 223.215 C 223.580 223.217,222.950 223.586,222.400 224.036 M219.600 225.636 C 218.936 226.179,218.869 226.315,219.400 226.040 C 220.705 225.366,221.428 224.812,221.000 224.815 C 220.780 224.817,220.150 225.186,219.600 225.636 M211.500 230.229 C 210.005 231.040,210.096 231.378,211.600 230.600 C 212.260 230.259,212.800 229.894,212.800 229.790 C 212.800 229.532,212.757 229.547,211.500 230.229 M205.900 233.429 C 205.295 233.757,204.800 234.110,204.800 234.213 C 204.800 234.599,205.432 234.357,206.400 233.600 C 207.589 232.670,207.411 232.609,205.900 233.429 M199.000 237.452 C 196.014 239.221,195.066 240.109,197.831 238.547 C 200.032 237.304,201.920 236.046,201.600 236.036 C 201.490 236.033,200.320 236.670,199.000 237.452 M194.000 240.436 C 193.336 240.979,193.269 241.115,193.800 240.840 C 195.105 240.166,195.828 239.612,195.400 239.615 C 195.180 239.617,194.550 239.986,194.000 240.436 M191.200 242.036 C 190.536 242.579,190.469 242.715,191.000 242.440 C 192.305 241.766,193.028 241.212,192.600 241.215 C 192.380 241.217,191.750 241.586,191.200 242.036 M185.600 245.233 L 184.600 246.048 185.900 245.414 C 186.615 245.065,187.200 244.694,187.200 244.590 C 187.200 244.192,186.563 244.448,185.600 245.233 M182.800 246.833 L 181.800 247.648 183.100 247.014 C 183.815 246.665,184.400 246.294,184.400 246.190 C 184.400 245.792,183.763 246.048,182.800 246.833 M180.300 248.229 C 178.805 249.040,178.896 249.378,180.400 248.600 C 181.060 248.259,181.600 247.894,181.600 247.790 C 181.600 247.532,181.557 247.547,180.300 248.229 M173.295 252.271 C 171.928 253.080,170.870 253.803,170.945 253.878 C 171.071 254.005,175.447 251.486,175.918 251.015 C 176.423 250.511,175.626 250.892,173.295 252.271 M169.389 254.537 C 168.955 254.833,167.520 255.658,166.200 256.370 C 164.880 257.083,163.620 257.850,163.400 258.076 C 163.180 258.301,164.277 257.791,165.838 256.943 C 168.721 255.376,170.772 254.059,170.389 254.021 C 170.273 254.009,169.823 254.242,169.389 254.537 M161.500 259.029 C 160.005 259.840,160.096 260.178,161.600 259.400 C 162.260 259.059,162.800 258.694,162.800 258.590 C 162.800 258.332,162.757 258.347,161.500 259.029 " stroke="none" fill="#fc8484" fill-rule="evenodd"></path></g></svg>